<svg width="188" height="188" viewBox="0 0 188 188" fill="none" xmlns="http://www.w3.org/2000/svg">
<g id="Group 115">
<circle id="Ellipse 8" cx="94" cy="94" r="94" fill="white" fill-opacity="0.08"/>
<g id="Mask group">
<mask id="mask0_188_1752" style="mask-type:alpha" maskUnits="userSpaceOnUse" x="0" y="0" width="188" height="188">
<circle id="Ellipse 7" cx="94" cy="94" r="94" fill="#C4C4C4"/>
</mask>
<g mask="url(#mask0_188_1752)">
<g id="Group 66">
<g id="&#232;&#161;&#163;&#230;&#156;&#141;">
<path id="&#232;&#132;&#150;&#229;&#173;&#144;" d="M81.747 141.46L79.7342 141.656L80.5052 143.524L80.5054 143.524L80.5056 143.525L80.5056 143.525L80.5058 143.526L80.509 143.533L80.5262 143.577C80.5421 143.617 80.5663 143.679 80.5969 143.761C80.6583 143.926 80.745 144.168 80.842 144.467C81.0372 145.07 81.2672 145.885 81.4189 146.756C81.5725 147.638 81.6331 148.509 81.5352 149.247C81.4374 149.985 81.2018 150.455 80.889 150.736C80.5311 151.058 79.8605 151.345 78.8367 151.512C77.8466 151.674 76.7032 151.697 75.5844 151.644C74.4739 151.591 73.4353 151.467 72.6712 151.354C72.2906 151.298 71.9815 151.245 71.7697 151.207C71.6639 151.188 71.5826 151.173 71.529 151.162L71.47 151.151L71.457 151.148L71.4552 151.148L71.4548 151.148L71.4547 151.148L71.4546 151.148L69.2781 150.7L69.6772 152.886L72.3907 167.752L72.5796 168.787L73.6171 168.962L107.129 174.608L107.847 174.729L108.387 174.24L116.993 166.429L117.681 165.805L117.428 164.911L113.841 152.209L113.469 150.89L112.122 151.142L112.122 151.142L112.122 151.142L112.122 151.142L112.12 151.143L112.107 151.145L112.049 151.156C111.997 151.165 111.918 151.178 111.816 151.195C111.611 151.229 111.313 151.275 110.949 151.324C110.218 151.422 109.234 151.53 108.204 151.571C107.163 151.612 106.136 151.583 105.296 151.434C104.391 151.273 104.012 151.025 103.905 150.896C102.856 149.627 102.738 147.492 103.098 145.271C103.268 144.221 103.526 143.266 103.744 142.571C103.852 142.225 103.949 141.948 104.017 141.76C104.051 141.666 104.078 141.595 104.096 141.549L104.115 141.5L104.119 141.49L104.119 141.49L104.119 141.49L104.12 141.489L104.12 141.489L105.054 139.192L102.584 139.432L81.747 141.46Z" fill="#B7856D" stroke="#2B1A15" stroke-width="3"/>
<path id="&#232;&#183;&#175;&#229;&#190;&#132; 15" fill-rule="evenodd" clip-rule="evenodd" d="M74.2707 151.922C74.2707 151.922 76.8055 155.843 78.741 156.661C83.6231 158.726 88.3632 161.723 92.8936 161.723C97.3026 161.723 102.998 157.735 107.378 155.737C108.157 155.382 109.292 154.866 110.22 154.218C110.805 153.809 110.997 151.922 110.997 151.922L115.211 152.829L119.417 219.887L69.0706 218.744L69.9716 155.737C69.9716 155.737 70.1529 153.499 70.9079 152.829C71.663 152.159 74.2707 151.922 74.2707 151.922Z" fill="#F7F7F7" stroke="#969AA8" stroke-width="2"/>
</g>
<g id="&#229;&#183;&#166;&#232;&#128;&#179;">
<path id="&#232;&#183;&#175;&#229;&#190;&#132; 2" d="M46.574 80.8808L46.4273 80.5777L46.165 80.3664L45.2239 81.5344C46.165 80.3664 46.1647 80.3661 46.1644 80.3659L46.1636 80.3653L46.1618 80.3638L46.157 80.3599L46.1424 80.3483C46.1306 80.339 46.1145 80.3263 46.0943 80.3106C46.0539 80.2792 45.9972 80.2357 45.9254 80.182C45.782 80.0749 45.5777 79.9268 45.3237 79.7547C44.8184 79.4123 44.1024 78.9653 43.2669 78.5556C41.6945 77.7847 39.2762 76.9343 37.0322 77.7576C35.1923 78.4326 34.1778 80.1079 33.6397 81.3571C33.0827 82.6502 32.8674 83.8777 32.8302 84.2333L32.822 84.3112V84.3894C32.822 90.6954 32.9184 96.0026 36.8259 102.005C39.0846 105.475 42.105 107.927 44.5231 109.502C45.7378 110.294 46.8157 110.874 47.5952 111.258C47.9853 111.451 48.3019 111.595 48.5249 111.692C48.6365 111.741 48.7247 111.778 48.7872 111.804C48.8184 111.817 48.8432 111.827 48.8613 111.834L48.8833 111.843L48.8904 111.845L48.893 111.846L48.894 111.847C48.8945 111.847 48.8949 111.847 49.4407 110.45L48.8949 111.847L49.9421 112.256L50.6286 111.366L56.6376 103.573L57.2041 102.838L56.7999 102.003L46.574 80.8808Z" fill="#B7856D" stroke="#2B1A15" stroke-width="3"/>
<path id="&#232;&#183;&#175;&#229;&#190;&#132; 3" fill-rule="evenodd" clip-rule="evenodd" d="M44.9396 87.3003C44.9396 87.3003 40.1497 83.0803 38.5026 85.1903C36.8556 87.3003 36.6548 90.9012 39.8681 97.5263C43.0814 104.151 49.8873 105.428 49.8873 105.428L44.9396 87.3003Z" fill="#9D6856"/>
<path id="&#232;&#183;&#175;&#229;&#190;&#132; 4" fill-rule="evenodd" clip-rule="evenodd" d="M45.3665 91.9261C45.3665 91.9261 41.4965 90.6579 41.4965 93.7419C41.4965 96.8258 47.3699 101.515 47.3699 101.515L45.3665 91.9261Z" fill="#B7856D"/>
<path id="&#232;&#183;&#175;&#229;&#190;&#132; 5" fill-rule="evenodd" clip-rule="evenodd" d="M38.7381 85.106C38.7381 85.106 39.8291 85.4308 41.7219 86.5902C43.6148 87.7497 45.5132 92.1797 45.5132 92.1797C45.5132 92.1797 45.7122 88.7154 44.9397 87.3006C44.3282 86.4135 43.5355 85.8414 42.918 85.4308C41.9564 84.7912 41.1014 84.5485 40.1441 84.5485C39.5108 84.5485 38.7381 85.106 38.7381 85.106Z" fill="#644034"/>
</g>
<g id="&#229;&#183;&#166;&#232;&#128;&#179;&#229;&#164;&#135;&#228;&#187;&#189;">
<path id="&#232;&#183;&#175;&#229;&#190;&#132; 2_2" d="M138.663 80.8808L138.809 80.5777L139.072 80.3664L140.013 81.5344C139.072 80.3664 139.072 80.3661 139.072 80.3659L139.073 80.3653L139.075 80.3638L139.08 80.3599L139.094 80.3483C139.106 80.339 139.122 80.3263 139.142 80.3106C139.183 80.2792 139.24 80.2357 139.311 80.182C139.455 80.0749 139.659 79.9268 139.913 79.7547C140.418 79.4123 141.134 78.9653 141.97 78.5556C143.542 77.7847 145.961 76.9343 148.205 77.7576C150.044 78.4326 151.059 80.1079 151.597 81.3571C152.154 82.6502 152.369 83.8777 152.407 84.2333L152.415 84.3112V84.3894C152.415 90.6954 152.318 96.0026 148.411 102.005C146.152 105.475 143.132 107.927 140.714 109.502C139.499 110.294 138.421 110.874 137.642 111.258C137.251 111.451 136.935 111.595 136.712 111.692C136.6 111.741 136.512 111.778 136.45 111.804C136.418 111.817 136.394 111.827 136.375 111.834L136.353 111.843L136.346 111.845L136.344 111.846L136.343 111.847C136.342 111.847 136.342 111.847 135.796 110.45L136.342 111.847L135.295 112.256L134.608 111.366L128.599 103.573L128.033 102.838L128.437 102.003L138.663 80.8808Z" fill="#B7856D" stroke="#2B1A15" stroke-width="3"/>
<path id="&#232;&#183;&#175;&#229;&#190;&#132; 3_2" fill-rule="evenodd" clip-rule="evenodd" d="M140.297 87.3003C140.297 87.3003 145.087 83.0803 146.734 85.1903C148.381 87.3003 148.582 90.9012 145.369 97.5263C142.155 104.151 135.349 105.428 135.349 105.428L140.297 87.3003Z" fill="#9D6856"/>
<path id="&#232;&#183;&#175;&#229;&#190;&#132; 4_2" fill-rule="evenodd" clip-rule="evenodd" d="M139.87 91.9261C139.87 91.9261 143.74 90.6579 143.74 93.7419C143.74 96.8258 137.867 101.515 137.867 101.515L139.87 91.9261Z" fill="#B7856D"/>
<path id="&#232;&#183;&#175;&#229;&#190;&#132; 5_2" fill-rule="evenodd" clip-rule="evenodd" d="M146.499 85.106C146.499 85.106 145.408 85.4308 143.515 86.5902C141.622 87.7497 139.723 92.1797 139.723 92.1797C139.723 92.1797 139.524 88.7154 140.297 87.3006C140.908 86.4135 141.701 85.8414 142.319 85.4308C143.28 84.7912 144.135 84.5485 145.093 84.5485C145.726 84.5485 146.499 85.106 146.499 85.106Z" fill="#644034"/>
</g>
<g id="&#232;&#132;&#184;">
<g id="&#229;&#189;&#162;&#231;&#138;&#182;&#231;&#187;&#147;&#229;&#144;&#136;">
<mask id="path-13-outside-1_188_1752" maskUnits="userSpaceOnUse" x="38.6202" y="4.09094" width="109" height="146" fill="black">
<rect fill="white" x="38.6202" y="4.09094" width="109" height="146"/>
<path fill-rule="evenodd" clip-rule="evenodd" d="M137.36 102.431C140.762 94.6479 140.574 76.0763 140.574 76.0763L144.587 47.1926L93.1835 7.21476L93.1833 7.09099L93.1038 7.15279L93.0243 7.09094L93.0245 7.21447L41.6202 47.1927L45.6333 76.0764C45.6333 76.0764 45.4453 94.6479 48.8473 102.431C49.9004 105.804 50.4824 108.642 51.0136 111.233C52.3779 117.886 53.4078 122.908 61.2253 131.191C71.5387 142.118 91.3003 146.53 93.269 146.948L93.2691 146.981C93.2691 146.981 93.2957 146.976 93.3476 146.965C93.4008 146.976 93.4281 146.981 93.4281 146.981L93.428 146.947C95.372 146.525 114.675 142.111 124.982 131.19C132.8 122.908 133.83 117.886 135.194 111.233C135.725 108.642 136.307 105.804 137.36 102.431Z"/>
</mask>
<path fill-rule="evenodd" clip-rule="evenodd" d="M137.36 102.431C140.762 94.6479 140.574 76.0763 140.574 76.0763L144.587 47.1926L93.1835 7.21476L93.1833 7.09099L93.1038 7.15279L93.0243 7.09094L93.0245 7.21447L41.6202 47.1927L45.6333 76.0764C45.6333 76.0764 45.4453 94.6479 48.8473 102.431C49.9004 105.804 50.4824 108.642 51.0136 111.233C52.3779 117.886 53.4078 122.908 61.2253 131.191C71.5387 142.118 91.3003 146.53 93.269 146.948L93.2691 146.981C93.2691 146.981 93.2957 146.976 93.3476 146.965C93.4008 146.976 93.4281 146.981 93.4281 146.981L93.428 146.947C95.372 146.525 114.675 142.111 124.982 131.19C132.8 122.908 133.83 117.886 135.194 111.233C135.725 108.642 136.307 105.804 137.36 102.431Z" fill="#B7856D"/>
<path d="M140.574 76.0763L137.603 75.6635C137.583 75.8103 137.573 75.9585 137.575 76.1067L140.574 76.0763ZM137.36 102.431L134.612 101.229C134.568 101.329 134.529 101.432 134.497 101.537L137.36 102.431ZM144.587 47.1926L147.559 47.6055C147.706 46.5432 147.276 45.4829 146.429 44.8245L144.587 47.1926ZM93.1835 7.21476L90.1835 7.22003C90.1852 8.14398 90.6124 9.01565 91.3418 9.58288L93.1835 7.21476ZM93.1833 7.09099L96.1833 7.08572C96.1813 5.94089 95.5279 4.897 94.499 4.39491C93.4702 3.89281 92.2453 4.02005 91.3416 4.72288L93.1833 7.09099ZM93.1038 7.15279L91.2621 9.52092C92.3454 10.3634 93.8623 10.3634 94.9456 9.5209L93.1038 7.15279ZM93.0243 7.09094L94.866 4.72281C93.9608 4.01882 92.7335 3.89244 91.7038 4.39719C90.6742 4.90193 90.0223 5.94949 90.0243 7.09622L93.0243 7.09094ZM93.0245 7.21447L94.8663 9.58259C95.5986 9.01309 96.0262 8.13685 96.0245 7.20919L93.0245 7.21447ZM41.6202 47.1927L39.7785 44.8246C38.9319 45.483 38.5012 46.5433 38.6488 47.6055L41.6202 47.1927ZM45.6333 76.0764L48.6331 76.1068C48.6346 75.9585 48.6251 75.8104 48.6047 75.6635L45.6333 76.0764ZM48.8473 102.431L51.711 101.537C51.6783 101.432 51.64 101.329 51.5961 101.229L48.8473 102.431ZM51.0136 111.233L53.9525 110.63L51.0136 111.233ZM61.2253 131.191L63.407 129.131H63.407L61.2253 131.191ZM93.269 146.948L96.269 146.943C96.2666 145.528 95.2758 144.307 93.8916 144.013L93.269 146.948ZM93.2691 146.981L90.2691 146.986C90.2707 147.887 90.6766 148.739 91.3749 149.307C92.0732 149.876 92.99 150.101 93.8721 149.92L93.2691 146.981ZM93.3476 146.965L93.9608 144.028C93.5518 143.942 93.1294 143.943 92.7207 144.031L93.3476 146.965ZM93.4281 146.981L92.8384 149.923C93.7208 150.099 94.636 149.871 95.3316 149.3C96.0272 148.729 96.4297 147.876 96.4281 146.976L93.4281 146.981ZM93.428 146.947L92.7913 144.016C91.41 144.316 90.4255 145.539 90.428 146.953L93.428 146.947ZM124.982 131.19L122.801 129.131L124.982 131.19ZM135.194 111.233L132.255 110.63L135.194 111.233ZM140.574 76.0763C137.575 76.1067 137.575 76.1065 137.575 76.1064C137.575 76.1064 137.575 76.1064 137.575 76.1065C137.575 76.1067 137.575 76.1071 137.575 76.1079C137.575 76.1094 137.575 76.112 137.575 76.1158C137.575 76.1232 137.575 76.1351 137.575 76.1512C137.575 76.1835 137.575 76.233 137.576 76.2987C137.576 76.4302 137.577 76.6266 137.576 76.8809C137.574 77.3897 137.569 78.1292 137.551 79.0425C137.516 80.8714 137.435 83.386 137.25 86.1333C136.869 91.7939 136.075 97.8805 134.612 101.229L140.109 103.632C142.048 99.1979 142.861 92.1074 143.236 86.5366C143.43 83.6681 143.514 81.0535 143.55 79.157C143.568 78.2076 143.574 77.4354 143.576 76.8982C143.577 76.6295 143.576 76.4193 143.576 76.2749C143.575 76.2027 143.575 76.1469 143.575 76.1085C143.575 76.0893 143.574 76.0744 143.574 76.0639C143.574 76.0587 143.574 76.0546 143.574 76.0516C143.574 76.0501 143.574 76.0489 143.574 76.0479C143.574 76.0475 143.574 76.047 143.574 76.0467C143.574 76.0463 143.574 76.046 140.574 76.0763ZM141.616 46.7798L137.603 75.6635L143.546 76.4892L147.559 47.6055L141.616 46.7798ZM91.3418 9.58288L142.746 49.5608L146.429 44.8245L95.0253 4.84664L91.3418 9.58288ZM96.1835 7.20949L96.1833 7.08572L90.1833 7.09626L90.1835 7.22003L96.1835 7.20949ZM91.3416 4.72288L91.2621 4.78468L94.9456 9.5209L95.0251 9.4591L91.3416 4.72288ZM91.1826 9.45908L91.2621 9.52092L94.9456 4.78465L94.866 4.72281L91.1826 9.45908ZM96.0245 7.20919L96.0243 7.08566L90.0243 7.09622L90.0245 7.21975L96.0245 7.20919ZM91.1828 4.84635L39.7785 44.8246L43.462 49.5608L94.8663 9.58259L91.1828 4.84635ZM38.6488 47.6055L42.6618 76.4892L48.6047 75.6635L44.5917 46.7798L38.6488 47.6055ZM45.6333 76.0764C42.6334 76.046 42.6334 76.0464 42.6334 76.0468C42.6334 76.047 42.6334 76.0475 42.6334 76.048C42.6334 76.0489 42.6334 76.0501 42.6334 76.0516C42.6333 76.0546 42.6333 76.0587 42.6333 76.064C42.6332 76.0744 42.633 76.0893 42.6329 76.1085C42.6326 76.147 42.6323 76.2028 42.632 76.275C42.6314 76.4194 42.6311 76.6295 42.6318 76.8982C42.6334 77.4355 42.6395 78.2076 42.6576 79.157C42.6938 81.0535 42.7781 83.6682 42.9713 86.5366C43.3465 92.1075 44.1601 99.198 46.0984 103.632L51.5961 101.229C50.1324 97.8806 49.339 91.794 48.9577 86.1334C48.7727 83.3861 48.6914 80.8715 48.6565 79.0426C48.6391 78.1293 48.6333 77.3897 48.6318 76.881C48.6311 76.6266 48.6314 76.4302 48.632 76.2987C48.6322 76.233 48.6325 76.1836 48.6328 76.1513C48.6329 76.1351 48.633 76.1233 48.633 76.1158C48.6331 76.1121 48.6331 76.1094 48.6331 76.1079C48.6331 76.1072 48.6331 76.1067 48.6331 76.1065C48.6331 76.1064 48.6331 76.1065 48.6331 76.1064C48.6331 76.1066 48.6331 76.1068 45.6333 76.0764ZM45.9835 103.325C46.9873 106.54 47.5438 109.246 48.0748 111.835L53.9525 110.63C53.421 108.038 52.8135 105.069 51.711 101.537L45.9835 103.325ZM48.0748 111.835C48.7502 115.129 49.4028 118.363 50.9638 121.832C52.5388 125.331 54.967 128.93 59.0436 133.25L63.407 129.131C59.6662 125.168 57.6707 122.114 56.4353 119.369C55.1858 116.593 54.6414 113.99 53.9525 110.63L48.0748 111.835ZM59.0436 133.25C64.656 139.196 72.6671 143.228 79.2879 145.806C85.9701 148.408 91.5743 149.655 92.6465 149.883L93.8916 144.013C92.995 143.823 87.734 142.656 81.4648 140.215C75.1344 137.75 68.108 134.112 63.407 129.131L59.0436 133.25ZM96.2691 146.976L96.269 146.943L90.2691 146.953L90.2691 146.986L96.2691 146.976ZM92.7207 144.031C92.6989 144.035 92.6833 144.039 92.6741 144.041C92.6695 144.042 92.6666 144.042 92.6652 144.042C92.6645 144.043 92.6643 144.043 92.6644 144.043C92.6645 144.043 92.6647 144.043 92.665 144.043C92.6651 144.042 92.6653 144.042 92.6655 144.042C92.6656 144.042 92.6657 144.042 92.6658 144.042C92.6658 144.042 92.6659 144.042 92.6659 144.042C92.666 144.042 92.666 144.042 92.666 144.042C92.666 144.042 92.6661 144.042 92.6661 144.042C92.6661 144.042 92.6661 144.042 93.2691 146.981C93.8721 149.92 93.8721 149.92 93.8721 149.92C93.8722 149.92 93.8722 149.92 93.8722 149.92C93.8722 149.92 93.8723 149.92 93.8723 149.92C93.8724 149.92 93.8724 149.92 93.8725 149.92C93.8726 149.92 93.8728 149.92 93.8729 149.92C93.8732 149.92 93.8735 149.92 93.8739 149.919C93.8746 149.919 93.8754 149.919 93.8763 149.919C93.8781 149.919 93.8803 149.918 93.8829 149.918C93.8882 149.917 93.8951 149.915 93.9037 149.913C93.9208 149.91 93.9444 149.905 93.9744 149.898L92.7207 144.031ZM92.7343 149.901C92.7649 149.908 92.789 149.913 92.8064 149.916C92.8151 149.918 92.8222 149.919 92.8275 149.92C92.8302 149.921 92.8324 149.921 92.8342 149.922C92.8351 149.922 92.8359 149.922 92.8366 149.922C92.837 149.922 92.8373 149.922 92.8376 149.922C92.8377 149.922 92.8379 149.922 92.838 149.923C92.8381 149.923 92.8382 149.923 92.8382 149.923C92.8382 149.923 92.8383 149.923 92.8383 149.923C92.8383 149.923 92.8383 149.923 92.8384 149.923C92.8384 149.923 92.8384 149.923 93.4281 146.981C94.0178 144.04 94.0178 144.04 94.0178 144.04C94.0178 144.04 94.0179 144.04 94.0179 144.04C94.0179 144.04 94.0179 144.04 94.018 144.04C94.018 144.04 94.0181 144.04 94.0181 144.04C94.0182 144.04 94.0183 144.04 94.0184 144.04C94.0186 144.04 94.0188 144.04 94.0189 144.04C94.0192 144.04 94.0193 144.04 94.0194 144.04C94.0195 144.04 94.0192 144.04 94.0185 144.04C94.017 144.039 94.0139 144.039 94.0091 144.038C93.9996 144.036 93.9834 144.033 93.9608 144.028L92.7343 149.901ZM96.4281 146.976L96.428 146.942L90.428 146.953L90.4281 146.987L96.4281 146.976ZM122.801 129.131C118.093 134.119 111.169 137.756 104.963 140.217C98.8129 142.656 93.6737 143.824 92.7913 144.016L94.0647 149.879C95.1264 149.648 100.611 148.398 107.175 145.794C113.683 143.213 121.565 139.182 127.164 133.25L122.801 129.131ZM132.255 110.63C131.566 113.989 131.022 116.593 129.772 119.369C128.537 122.114 126.541 125.168 122.801 129.131L127.164 133.25C131.241 128.93 133.669 125.331 135.244 121.832C136.805 118.363 137.457 115.129 138.133 111.835L132.255 110.63ZM134.497 101.537C133.394 105.069 132.787 108.038 132.255 110.63L138.133 111.835C138.664 109.246 139.22 106.54 140.224 103.324L134.497 101.537Z" fill="#2B1A15" mask="url(#path-13-outside-1_188_1752)"/>
</g>
</g>
<g id="&#231;&#156;&#188;&#233;&#131;&#168;">
<g id="&#231;&#188;&#150;&#231;&#187;&#132; 8">
<path id="&#232;&#183;&#175;&#229;&#190;&#132; 6" fill-rule="evenodd" clip-rule="evenodd" d="M56.2491 86.2988C56.2491 86.2988 56.3136 94.0197 67.9126 96.3148C71.5514 97.0348 81.8921 93.4888 81.8921 93.4888L56.2491 86.2988Z" fill="#A26D5A"/>
<path id="&#231;&#153;&#189;bg" fill-rule="evenodd" clip-rule="evenodd" d="M57.0899 84.2701L56.5668 84.7198C56.5668 84.7198 57.4519 93.5237 66.9916 95.4055C74.3351 96.8541 84.7121 92.1493 84.7121 92.1493L81.016 86.4192L73.2613 82.9081L63.6531 82.6447L57.0899 84.2701Z" fill="white"/>
<g id="&#231;&#156;&#188;&#231;&#143;&#160;">
<ellipse id="&#230;&#164;&#173;&#229;&#156;&#134;&#229;&#189;&#162;" cx="70.6009" cy="88.091" rx="8.14013" ry="6.62135" fill="black"/>
<path id="&#229;&#189;&#162;&#231;&#138;&#182;&#231;&#187;&#147;&#229;&#144;&#136;_2" fill-rule="evenodd" clip-rule="evenodd" d="M71.1528 92.8963C74.2622 92.8963 76.7828 90.5588 76.7828 87.6753C76.7828 84.7919 74.2622 82.4543 71.1528 82.4543C68.0435 82.4543 65.5229 84.7919 65.5229 87.6753C65.5229 90.5588 68.0435 92.8963 71.1528 92.8963ZM71.3978 91.0803C73.8312 91.0803 75.8038 89.2509 75.8038 86.9943C75.8038 84.7377 73.8312 82.9083 71.3978 82.9083C68.9644 82.9083 66.9917 84.7377 66.9917 86.9943C66.9917 89.2509 68.9644 91.0803 71.3978 91.0803Z" fill="#655C58"/>
<rect id="&#231;&#159;&#169;&#229;&#189;&#162;" x="67.481" y="84.2705" width="6.8539" height="6.35597" rx="3.17799" fill="black"/>
<path id="&#232;&#183;&#175;&#229;&#190;&#132; 7" fill-rule="evenodd" clip-rule="evenodd" d="M70.5353 84.4869L67.355 86.795C67.355 86.795 65.2631 85.3777 66.7866 83.4154C68.3101 81.4531 70.5353 84.4869 70.5353 84.4869Z" fill="white"/>
</g>
<path id="&#231;&#156;&#188;&#231;&#157;&#145;" fill-rule="evenodd" clip-rule="evenodd" d="M55.0702 83.6662C55.0702 83.6662 56.2252 83.0647 57.022 82.7773C61.8144 81.0486 67.884 80.9668 74.0163 82.3365C79.0401 83.6232 82.9713 86.3811 84.9628 90.6264C85.1906 91.1121 85.1994 91.9105 85.1994 91.9105C85.1994 91.9105 84.7743 92.1926 84.7119 92.1496C84.6495 92.1066 84.3748 91.6034 84.2761 91.4734C83.7365 90.7632 83.3401 89.9843 83.1064 89.6697C82.2339 88.495 80.6899 87.3742 79.1985 86.4357C76.6648 84.8413 75.8772 84.4873 72.2579 83.8656C70.9665 83.6438 67.6192 83.3997 63.1265 83.8656C57.0689 84.4873 56.6051 84.951 56.6051 84.951C56.6051 84.951 56.6883 85.6558 56.8211 86.4357C57.018 87.2162 57.3023 88.0501 57.3023 88.0501L57.5692 88.7203L57.022 88.3641C57.022 88.3641 56.0503 87.0925 55.6487 86.0461C55.187 84.8432 55.0702 83.6662 55.0702 83.6662Z" fill="black"/>
</g>
<path id="&#232;&#183;&#175;&#229;&#190;&#132; 127" fill-rule="evenodd" clip-rule="evenodd" d="M58.3828 80.7021C58.3828 80.7021 62.8406 79.1272 69.0709 78.8663C73.0198 78.7009 78.7412 79.8495 78.7412 79.8495C78.7412 79.8495 72.8203 77.5693 68.3401 77.7569C62.6411 77.9956 58.3828 80.7021 58.3828 80.7021Z" fill="#A9755C"/>
<path id="&#232;&#183;&#175;&#229;&#190;&#132; 128" fill-rule="evenodd" clip-rule="evenodd" d="M81.9098 69.4613C81.9098 69.4613 83.0251 70.3552 83.7388 71.9923C84.1286 72.8862 84.1169 74.5233 84.1169 74.5233C84.1169 74.5233 72.077 74.0368 63.1138 75.1953C56.3897 76.0643 52.7422 78.8661 52.7422 78.8661C52.7422 78.8661 53.1117 77.0092 54.2006 75.1953C54.8653 74.0879 55.0703 73.473 56.2493 73.0235C59.0416 71.9591 62.4491 71.3185 66.4667 70.5693C69.1404 70.0707 74.335 69.0765 74.335 69.0765C74.335 69.0765 76.6034 68.9679 78.7411 69.0765C80.3908 69.1603 81.9098 69.4613 81.9098 69.4613Z" fill="black"/>
</g>
<g id="&#231;&#156;&#188;&#233;&#131;&#168;&#229;&#164;&#135;&#228;&#187;&#189;">
<g id="&#231;&#188;&#150;&#231;&#187;&#132; 8_2">
<path id="&#232;&#183;&#175;&#229;&#190;&#132; 6_2" fill-rule="evenodd" clip-rule="evenodd" d="M130.159 86.2988C130.159 86.2988 130.095 94.0197 118.496 96.3148C114.857 97.0348 104.516 93.4888 104.516 93.4888L130.159 86.2988Z" fill="#A26D5A"/>
<path id="&#231;&#153;&#189;bg_2" fill-rule="evenodd" clip-rule="evenodd" d="M129.319 84.2701L129.842 84.7198C129.842 84.7198 128.957 93.5237 119.417 95.4055C112.074 96.8541 101.697 92.1493 101.697 92.1493L105.393 86.4192L113.147 82.9081L122.755 82.6447L129.319 84.2701Z" fill="white"/>
<g id="&#231;&#156;&#188;&#231;&#143;&#160;_2">
<ellipse id="&#230;&#164;&#173;&#229;&#156;&#134;&#229;&#189;&#162;_2" cx="8.14013" cy="6.62135" rx="8.14013" ry="6.62135" transform="matrix(-1 0 0 1 123.948 81.4696)" fill="black"/>
<path id="&#229;&#189;&#162;&#231;&#138;&#182;&#231;&#187;&#147;&#229;&#144;&#136;_3" fill-rule="evenodd" clip-rule="evenodd" d="M115.256 92.8963C112.146 92.8963 109.626 90.5588 109.626 87.6753C109.626 84.7919 112.146 82.4543 115.256 82.4543C118.365 82.4543 120.886 84.7919 120.886 87.6753C120.886 90.5588 118.365 92.8963 115.256 92.8963ZM115.011 91.0803C112.577 91.0803 110.605 89.2509 110.605 86.9943C110.605 84.7377 112.577 82.9083 115.011 82.9083C117.444 82.9083 119.417 84.7377 119.417 86.9943C119.417 89.2509 117.444 91.0803 115.011 91.0803Z" fill="#655C58"/>
<rect id="&#231;&#159;&#169;&#229;&#189;&#162;_2" width="6.8539" height="6.35597" rx="3.17799" transform="matrix(-1 0 0 1 118.927 84.2705)" fill="black"/>
<path id="&#232;&#183;&#175;&#229;&#190;&#132; 7_2" fill-rule="evenodd" clip-rule="evenodd" d="M115.873 84.4869L119.053 86.795C119.053 86.795 121.145 85.3777 119.622 83.4154C118.098 81.4531 115.873 84.4869 115.873 84.4869Z" fill="white"/>
</g>
<path id="&#231;&#156;&#188;&#231;&#157;&#145;_2" fill-rule="evenodd" clip-rule="evenodd" d="M131.338 83.6662C131.338 83.6662 130.183 83.0647 129.386 82.7773C124.594 81.0486 118.524 80.9668 112.392 82.3365C107.368 83.6232 103.437 86.3811 101.446 90.6264C101.218 91.1121 101.209 91.9105 101.209 91.9105C101.209 91.9105 101.634 92.1926 101.696 92.1496C101.759 92.1066 102.034 91.6034 102.132 91.4734C102.672 90.7632 103.068 89.9843 103.302 89.6697C104.174 88.495 105.718 87.3742 107.21 86.4357C109.744 84.8413 110.531 84.4873 114.15 83.8656C115.442 83.6438 118.789 83.3997 123.282 83.8656C129.339 84.4873 129.803 84.951 129.803 84.951C129.803 84.951 129.72 85.6558 129.587 86.4357C129.39 87.2162 129.106 88.0501 129.106 88.0501L128.839 88.7203L129.386 88.3641C129.386 88.3641 130.358 87.0925 130.76 86.0461C131.221 84.8432 131.338 83.6662 131.338 83.6662Z" fill="black"/>
</g>
<path id="&#232;&#183;&#175;&#229;&#190;&#132; 127_2" fill-rule="evenodd" clip-rule="evenodd" d="M128.026 80.7021C128.026 80.7021 123.568 79.1272 117.338 78.8663C113.389 78.7009 107.667 79.8495 107.667 79.8495C107.667 79.8495 113.588 77.5693 118.068 77.7569C123.767 77.9956 128.026 80.7021 128.026 80.7021Z" fill="#A9755C"/>
<path id="&#232;&#183;&#175;&#229;&#190;&#132; 128_2" fill-rule="evenodd" clip-rule="evenodd" d="M104.499 69.4613C104.499 69.4613 103.383 70.3552 102.67 71.9923C102.28 72.8862 102.291 74.5233 102.291 74.5233C102.291 74.5233 114.331 74.0368 123.295 75.1953C130.019 76.0643 133.666 78.8661 133.666 78.8661C133.666 78.8661 133.297 77.0092 132.208 75.1953C131.543 74.0879 131.338 73.473 130.159 73.0235C127.367 71.9591 123.959 71.3185 119.942 70.5693C117.268 70.0707 112.073 69.0765 112.073 69.0765C112.073 69.0765 109.805 68.9679 107.667 69.0765C106.018 69.1603 104.499 69.4613 104.499 69.4613Z" fill="black"/>
</g>
<g id="&#233;&#188;&#187;&#229;&#173;&#144;">
<path id="&#229;&#189;&#162;&#231;&#138;&#182;&#231;&#187;&#147;&#229;&#144;&#136;_4" fill-rule="evenodd" clip-rule="evenodd" d="M86.43 113.457C82.8818 111.309 83.0667 107.781 83.0667 107.781L84.7118 106.297C84.7118 106.297 84.3593 108.315 85.1993 109.176C86.0393 110.037 88.0025 109.671 88.0025 109.671C88.0025 109.671 89.3175 111.162 90.4224 111.647C91.4115 112.081 92.6456 112.127 92.8936 112.132C93.1417 112.127 94.3758 112.081 95.3648 111.647C96.4698 111.162 97.7848 109.671 97.7848 109.671C97.7848 109.671 99.748 110.037 100.588 109.176C101.428 108.315 101.075 106.297 101.075 106.297L102.721 107.781C102.721 107.781 103.35 110.911 99.3573 113.457C95.8022 115.724 93.4179 115.973 92.9382 116V116.003C92.9382 116.003 92.9325 116.003 92.9212 116.001C92.8734 116.003 92.849 116.003 92.849 116.003V115.99C92.3306 115.904 89.6177 115.387 86.43 113.457Z" fill="#A06958"/>
<path id="&#229;&#189;&#162;&#231;&#138;&#182;&#231;&#187;&#147;&#229;&#144;&#136;_5" fill-rule="evenodd" clip-rule="evenodd" d="M102.388 107.805C102.059 107.109 100.734 105.651 100.734 105.651C100.734 105.651 101.414 108.743 101.011 109.611C100.609 110.48 97.8636 110.266 97.8636 110.266C97.8636 110.266 96.6685 111.735 95.2283 112.613C94.2338 113.22 92.9781 113.401 92.9781 113.401V114.881C92.9781 114.881 94.8736 114.548 95.8569 113.859C96.601 113.388 97.1006 112.865 97.5091 112.436C97.9244 112.001 98.2455 111.664 98.6338 111.582C98.9035 111.525 99.249 111.507 99.6254 111.487C100.742 111.429 102.131 111.357 102.619 110.206C102.822 109.715 102.818 108.714 102.388 107.805ZM84.712 105.652C84.712 105.652 83.3874 107.11 83.0581 107.806C82.6282 108.715 82.6244 109.716 82.8273 110.206C83.3157 111.358 84.7042 111.43 85.8208 111.488C86.1972 111.507 86.5427 111.525 86.8125 111.583C87.2007 111.665 87.5219 112.002 87.9371 112.437C88.3456 112.865 88.8452 113.389 89.5893 113.86C90.57 114.546 92.458 114.88 92.4681 114.881V114.881H92.9779V113.401H92.4682V113.401C92.4682 113.401 91.2124 113.221 90.2179 112.614C88.7778 111.735 87.5826 110.267 87.5826 110.267C87.5826 110.267 84.8372 110.481 84.435 109.612C84.0327 108.743 84.712 105.652 84.712 105.652Z" fill="#5F3B2F"/>
</g>
<path id="&#231;&#159;&#169;&#229;&#189;&#162;&#229;&#164;&#135;&#228;&#187;&#189; 3" d="M85.6951 102.228C85.4152 101.259 85.9816 100.276 86.9603 100.033L90.8629 99.0635L91.8766 102.572L87.9739 103.541C86.9953 103.785 85.975 103.196 85.6951 102.228Z" fill="#E9BA92"/>
<path id="&#231;&#159;&#169;&#229;&#189;&#162;&#229;&#164;&#135;&#228;&#187;&#189; 4" d="M94.5245 99.0632L98.4271 100.033C99.4058 100.276 99.9722 101.259 99.6923 102.227C99.4124 103.196 98.3921 103.784 97.4135 103.541L93.5109 102.571L94.5245 99.0632Z" fill="#E9BA92"/>
<path id="&#231;&#159;&#169;&#229;&#189;&#162;_3" fill-rule="evenodd" clip-rule="evenodd" d="M90.001 99.2525L92.723 98.6248L95.8757 99.2525V102.885L92.9319 102.431L90.001 102.885V99.2525Z" fill="#F2C8A4"/>
<g id="&#229;&#164;&#180;&#229;&#143;&#145;">
<path id="bg" fill-rule="evenodd" clip-rule="evenodd" d="M60.3454 44.2951C60.3454 44.2951 59.7137 46.0406 57.7997 47.0425C56.3155 47.8195 53.5491 47.8527 53.5491 47.8527C53.5491 47.8527 53.381 49.6041 52.828 51.1548C51.7057 54.3025 50.2059 56.8158 50.2059 56.8158C50.2059 56.8158 49.5996 58.0372 49.4858 58.8458C49.1463 61.2575 49.1419 64.021 48.671 66.3003C47.7422 70.7954 46.462 74.9362 46.462 74.9362C46.462 74.9362 46.1555 78.0541 46.462 80.6846C46.9378 84.7681 48.0349 88.3641 48.0349 88.3641C48.0349 88.3641 43.3073 86.0815 40.6061 81.3867C38.1028 77.0358 39.4019 71.1985 39.4019 71.1985C39.4019 71.1985 36.9923 67.4966 36.4701 63.055C35.9594 58.7118 37.5128 53.8662 37.5128 53.8662C37.5128 53.8662 37.0261 47.0346 38.3077 42.5858C39.8675 37.1709 43.1955 34.1389 43.1955 34.1389C43.1955 34.1389 44.5627 28.9498 46.462 27.1018C48.8874 24.7419 51.8449 25.7232 51.8449 25.7232C51.8449 25.7232 53.0279 23.7327 54.2942 22.3564C56.0054 20.4965 58.169 19.6039 58.169 19.6039C58.169 19.6039 61.8948 13.6674 66.2155 11.0194C72.1033 7.41083 82.7758 7.09069 82.7758 7.09069C82.7758 7.09069 88.1791 6.18991 93.1037 4.25636C95.5152 3.30955 97.7005 0.800571 97.7005 0.800571L99.8552 -1.60681L98.4588 7.09069C98.4588 7.09069 107.652 8.81105 116.586 8.24479C121.658 7.92331 126.472 5.31521 126.472 5.31521C126.472 5.31521 126.741 7.56694 125.836 9.2785C124.501 11.8037 121.992 13.7887 121.992 13.7887C121.992 13.7887 132.696 18.0217 140.351 24.3813C148.646 31.2726 155.863 45.1405 155.863 45.1405L145.622 35.6527L147.9 40.1358C147.9 40.1358 151.941 50.1066 152.794 59.637C153.448 66.9471 150.915 73.0978 150.915 73.0978L149.173 68.4162L147.127 77.8423C147.127 77.8423 144.578 78.5945 143.74 79.7793C141.827 82.4837 141.625 85.6207 141.625 85.6207L138.975 91.5561L137.867 70.3364C137.867 70.3364 136.07 67.1437 133.131 66.3003C127.435 64.6656 120.597 64.8568 120.597 64.8568C120.597 64.8568 113.116 63.6618 107.378 60.5488C102.047 57.6565 98.4588 52.8462 98.4588 52.8462C98.4588 52.8462 99.7796 58.9199 104.227 62.2046C107.911 64.9252 113.923 64.8568 113.923 64.8568C113.923 64.8568 111.785 68.4162 105.044 68.4162C97.7005 68.4162 91.8546 64.0532 91.8546 64.0532C91.8546 64.0532 88.5768 61.0711 86.4023 57.6416C83.1838 52.5657 84.5274 51.9559 81.0685 47.0425C79.228 44.428 78.0687 43.1881 76.7828 42.5858C75.8708 42.1586 74.3833 43.3653 71.9256 43.5245C69.7325 43.6665 67.4811 43.1881 67.4811 43.1881C67.4811 43.1881 65.8708 44.3409 64.0466 44.6239C62.303 44.8944 60.3454 44.2951 60.3454 44.2951Z" fill="#27100B"/>
<g id="&#231;&#188;&#150;&#231;&#187;&#132; 4">
<path id="&#232;&#183;&#175;&#229;&#190;&#132; 105" fill-rule="evenodd" clip-rule="evenodd" d="M42.6263 38.8585C42.6263 38.8585 41.8436 44.7535 42.6263 47.3269C44.0253 51.9272 45.5538 50.737 46.3532 52.9228C46.7208 53.9279 46.1241 56.1604 45.5538 56.7129C43.7575 58.4528 41.62 57.5078 41.62 57.5078C41.62 57.5078 39.4764 51.7417 39.73 47.0423C39.9795 42.417 42.6263 38.8585 42.6263 38.8585Z" fill="#3A1F14"/>
<path id="&#232;&#183;&#175;&#229;&#190;&#132; 106" fill-rule="evenodd" clip-rule="evenodd" d="M48.1455 29.257C48.1455 29.257 47.3504 34.5812 48.1455 36.8732C49.6486 41.2056 52.7419 42.5057 52.7419 42.5057C52.7419 42.5057 52.0488 43.798 51.2933 43.9122C49.3627 44.2042 47.3698 43.3181 47.3698 43.3181C47.3698 43.3181 49.1948 46.1816 49.887 49.0849C50.0893 49.9333 49.5695 51.1984 49.1588 50.8215C46.4663 48.3497 45.664 47.6703 44.8856 42.5057C44.3178 38.7389 44.9109 35.441 46.4663 32.0128C47.3698 30.0217 48.1455 29.257 48.1455 29.257Z" fill="#3A1F14"/>
<path id="&#232;&#183;&#175;&#229;&#190;&#132; 107" fill-rule="evenodd" clip-rule="evenodd" d="M81.8922 8.99535C81.8922 8.99535 87.6763 8.10704 92.9384 6.38271C95.1535 5.65685 96.8466 4.09497 96.8466 4.09497C96.8466 4.09497 96.2596 6.49881 94.9775 7.09054C89.9304 9.41995 88.6405 8.11516 83.6699 10.7328C81.053 12.1109 76.6501 13.5805 74.3349 15.3106C72.6281 16.586 71.3975 19.5082 71.3975 19.5082C71.3975 19.5082 72.7102 18.1571 74.3349 17.3749C75.7198 16.7082 77.4168 16.6105 77.4168 16.6105C77.4168 16.6105 70.3947 21.2007 69.0707 26.866C67.795 32.3247 72.2174 38.8586 72.2174 38.8586C72.2174 38.8586 68.3442 38.3981 65.5228 36.6404C62.3573 34.6683 60.2436 31.3989 60.2436 31.3989C60.2436 31.3989 59.9642 33.2541 60.2436 34.765C60.6001 36.6931 61.5152 38.277 61.5152 38.277C61.5152 38.277 59.9267 38.976 58.493 38.277C56.3256 37.2201 57.0263 38.1633 54.3132 34.765C52.9917 33.1098 52.9245 30.4353 53.6427 27.9296C54.6926 24.267 57.8494 22.4284 57.8494 22.4284L59.1321 26.0714C59.1321 26.0714 60.3961 17.936 66.1446 13.6231C71.7762 9.39794 81.8922 8.99535 81.8922 8.99535Z" fill="#3A1F14"/>
<path id="&#232;&#183;&#175;&#229;&#190;&#132; 108" fill-rule="evenodd" clip-rule="evenodd" d="M75.8035 28.0955C75.8035 28.0955 74.1617 30.8633 74.6474 32.4283C75.832 36.245 79.1442 38.8588 79.1442 38.8588C79.1442 38.8588 81.0891 39.9062 82.988 43.5527C84.8869 47.1993 87.2844 54.4908 87.2844 54.4908C87.2844 54.4908 91.2389 61.5877 96.8466 64.6373C101.751 67.3042 108.355 66.4514 108.355 66.4514C108.355 66.4514 102.645 64.2852 99.3012 59.7695C95.5832 54.7479 94.2316 47.3768 94.2316 47.3768C94.2316 47.3768 93.3167 39.1202 89.2199 35.3994C85.0873 31.646 77.7729 32.4283 77.7729 32.4283C77.7729 32.4283 80.6967 31.3242 82.988 31.3242C85.2794 31.3242 88.8174 30.9608 90.8163 33.3028C95.1074 38.3302 95.5107 44.3626 96.8466 47.0426C99.3012 51.9672 105.71 57.8408 115.211 61.1642C119.858 62.7895 132.501 63.4157 132.501 63.4157C132.501 63.4157 132.335 62.0061 131.049 61.1642C126.382 58.108 123.673 57.615 120.597 55.6195C117.521 53.6241 115.211 50.89 115.211 50.89C115.211 50.89 117.193 52.9704 119.975 54.4908C122.313 55.7688 125.187 56.0526 127.529 57.2651C129.87 58.4777 134.009 61.1642 135.349 63.4157C137.435 66.9215 140.351 69.3061 140.351 69.3061C140.351 69.3061 139.449 57.9007 134.009 48.7008C127.798 38.1944 117.049 29.8934 117.049 29.8934C117.049 29.8934 127.724 37.0963 131.742 41.9546C135.759 46.8129 136.932 49.4447 140.351 57.2651C142.286 61.6932 142.45 66.4514 142.45 66.4514C142.45 66.4514 143.431 71.0783 143.09 75.4479C143.019 76.3706 142.132 76.7103 141.625 76.4079C141.118 76.1056 140.351 73.8135 140.351 73.8135C140.351 73.8135 140.218 76.3453 140.351 78.8666C140.444 80.6517 140.803 81.4697 140.803 81.4697C140.803 81.4697 141.566 79.4167 143.09 77.9194C143.823 77.1997 145.29 76.4079 145.29 76.4079C145.29 76.4079 147.597 70.0508 146.498 63.4157C145.34 56.4214 140.351 49.5798 140.351 49.5798C140.351 49.5798 145.29 53.1815 147.125 56.4456C149.375 60.4481 150.213 65.6031 150.213 65.6031C150.213 65.6031 150.831 57.4162 148.748 49.5798C146.537 41.2661 145.29 37.4579 141.625 33.3028C140.838 32.4114 139.285 31.08 136.11 29.8934C129.991 27.6074 121.454 25.9698 121.454 25.9698C121.454 25.9698 127.658 25.976 131.742 26.9557C138.009 28.4593 143.74 31.3242 143.74 31.3242C143.74 31.3242 140.422 27.1623 136.11 23.9165C131.751 20.6354 126.398 18.2704 126.398 18.2704C126.398 18.2704 114.477 14.8606 102.775 15.3303C91.4569 15.7846 80.9697 19.0356 80.9697 19.0356C80.9697 19.0356 85.9141 18.2704 90.8163 18.2704C93.1807 18.2704 95.503 19.0356 95.503 19.0356C95.503 19.0356 89.1002 19.1539 84.0489 21.477C79.2504 23.6839 75.8035 28.0955 75.8035 28.0955Z" fill="#3A1F14"/>
<path id="&#232;&#183;&#175;&#229;&#190;&#132; 109" fill-rule="evenodd" clip-rule="evenodd" d="M96.8465 9.92155C96.8465 9.92155 111.781 11.0016 118.638 9.92155C122.304 9.3441 123.659 8.49963 123.659 8.49963C123.659 8.49963 122.281 12.2926 118.638 12.9493C116.591 13.3183 114.218 12.2926 109.512 12.2926C102.582 12.2926 95.3663 12.9493 95.3663 12.9493L96.8465 9.92155Z" fill="#3A1F14"/>
</g>
<path id="&#229;&#189;&#162;&#231;&#138;&#182;&#231;&#187;&#147;&#229;&#144;&#136;_6" fill-rule="evenodd" clip-rule="evenodd" d="M75.0859 30.3287L74.3586 30.1793L74.4936 30.9094L74.8107 30.8507L86.1224 47.6498L86.1232 47.6526L86.1263 47.6628L86.138 47.7016C86.1483 47.7354 86.1635 47.785 86.1835 47.8489C86.2235 47.9768 86.2827 48.1625 86.3602 48.3957C86.515 48.862 86.743 49.5188 87.0364 50.2837C87.6218 51.8099 88.4735 53.7822 89.5314 55.5315C90.3361 56.8621 91.3401 57.9479 92.1372 58.698C92.5368 59.0742 92.8873 59.3686 93.1391 59.5699C93.2651 59.6706 93.3665 59.7481 93.4374 59.8011C93.4728 59.8276 93.5006 59.8479 93.5199 59.862L93.5426 59.8783L93.549 59.8829L93.5509 59.8842L93.5516 59.8847L93.5518 59.8849C93.5519 59.885 93.552 59.885 93.8401 59.4764L93.552 59.885L94.8853 60.8249L94.3078 59.2994L93.5042 57.1767C93.7154 57.4327 93.9356 57.6857 94.1625 57.9286C94.9723 58.7958 95.8652 59.5068 96.5513 59.9991C96.8953 60.246 97.1898 60.4397 97.3993 60.5722C97.504 60.6385 97.5877 60.6896 97.6458 60.7245C97.6666 60.7369 97.6841 60.7473 97.6982 60.7556C97.7038 60.759 97.7088 60.7619 97.7133 60.7646L97.7317 60.7753L97.7369 60.7783L97.7385 60.7792L97.739 60.7795L97.7392 60.7796C97.7393 60.7796 97.7394 60.7797 97.9878 60.3458L97.7394 60.7797L99.3162 61.6827L98.4233 60.1001L97.3316 58.1649L98.1993 58.9506L98.945 58.2952L98.9456 58.2948L98.9456 58.2947L98.9455 58.2946L98.9448 58.2935L98.941 58.2881L98.9251 58.2648C98.9108 58.2439 98.8894 58.2121 98.8614 58.1701C98.8055 58.0861 98.7236 57.9613 98.6215 57.8003C98.4174 57.4783 98.1328 57.0122 97.8136 56.4398C97.1739 55.2926 96.4014 53.7291 95.8557 52.0477C95.0245 49.4862 94.4187 46.791 94.0203 44.7315C93.8213 43.7028 93.6745 42.8352 93.5776 42.2253C93.5291 41.9204 93.4931 41.68 93.4693 41.5163C93.4574 41.4344 93.4485 41.3717 93.4427 41.3297L93.4361 41.2824L93.4346 41.2707L93.4342 41.268L93.4341 41.2673L93.4341 41.2672L93.4341 41.2672L93.4304 41.2398L93.4237 41.2128L92.9385 41.3336C93.4237 41.2128 93.4237 41.2126 93.4236 41.2124L93.4235 41.2119L93.4231 41.2105L93.4221 41.2065L93.4186 41.1931C93.4157 41.1818 93.4115 41.1659 93.4059 41.1457C93.3948 41.1052 93.3783 41.0471 93.356 40.9733C93.3114 40.8256 93.2433 40.6146 93.1476 40.3544C92.9564 39.8345 92.6544 39.1156 92.2085 38.3121C91.3182 36.7078 89.8427 34.7451 87.5117 33.3673C85.851 32.3858 83.3943 31.7702 81.4033 31.3989C80.3982 31.2115 79.4936 31.0832 78.8403 31.0017C78.5135 30.961 78.249 30.9319 78.0657 30.9129C77.9741 30.9035 77.9027 30.8965 77.8539 30.8919L77.8076 30.8876L75.0859 30.3287ZM74.8107 30.8507L74.9853 30.8185L74.3586 30.1793L74.8107 30.8507ZM91.0989 53.6471L92.686 57.8399L92.634 54.2654C92.7001 54.3686 92.7706 54.4772 92.8453 54.5903C93.3719 55.3874 94.0948 56.3911 94.8933 57.2461C95.4114 57.8008 95.971 58.2912 96.4831 58.6961L94.9447 55.9691L95.7157 55.3528L96.4557 56.0228C95.9158 54.9732 95.3423 53.7054 94.9046 52.3563C94.0559 49.7409 93.4409 47.0019 93.0385 44.9214C92.837 43.8801 92.6884 43.0013 92.59 42.3822C92.5408 42.0727 92.5041 41.828 92.4797 41.6602C92.4675 41.5763 92.4584 41.5117 92.4523 41.4678L92.4472 41.4314L92.634 54.2654C92.4679 54.0062 92.33 53.7814 92.2259 53.6077C92.1531 53.4863 92.0969 53.3901 92.0591 53.3246C92.048 53.3054 92.0385 53.2888 92.0307 53.2751C92.0251 53.2654 92.0204 53.2571 92.0166 53.2503L92.0061 53.2318L92.0037 53.2275L92.0032 53.2266L92.0031 53.2265L92.0031 53.2265L92.0022 53.227L91.0989 53.6471Z" fill="url(#paint0_linear_188_1752)"/>
<g id="&#231;&#188;&#150;&#231;&#187;&#132; 5">
<path id="&#232;&#183;&#175;&#229;&#190;&#132; 113" fill-rule="evenodd" clip-rule="evenodd" d="M107.864 32.8856C107.864 32.8856 111.298 34.6614 114.035 37.0437C116.769 39.4229 119.824 43.453 119.824 43.453V37.9356C119.824 37.9356 120.727 38.3151 121.425 38.8167C123.151 40.0556 124.672 41.4166 124.672 41.4166C124.672 41.4166 124.153 39.6274 122.25 37.9356C120.84 36.6823 118.113 35.1858 118.113 35.1858V39.1844C118.113 39.1844 116.289 36.8777 113.536 35.1858C111.164 33.7283 107.864 32.8856 107.864 32.8856Z" fill="#A58463"/>
<path id="&#232;&#183;&#175;&#229;&#190;&#132; 114" fill-rule="evenodd" clip-rule="evenodd" d="M104.375 37.7776C104.375 37.7776 104.375 39.6068 104.695 40.6152C105.275 42.4444 106.176 43.4528 106.176 43.4528L104.375 42.2866V45.5684C104.375 45.5684 102.707 44.1445 101.781 41.9603C100.919 39.9227 100.799 37.1246 100.799 37.1246L102.634 41.3465L104.375 37.7776Z" fill="#96755C"/>
<path id="&#232;&#183;&#175;&#229;&#190;&#132; 115" fill-rule="evenodd" clip-rule="evenodd" d="M81.9098 37.1246C81.9098 37.1246 83.2525 41.3685 85.2195 44.5879C87.1562 47.7577 90.0382 49.7875 90.0382 49.7875L88.3473 44.5879L91.7465 46.6934L91.2761 44.5879H92.4568C92.4568 44.5879 91.4885 43.9469 90.8536 42.9762C90.1187 41.8525 89.7173 39.4558 89.7173 39.4558C89.7173 39.4558 89.1032 40.1919 89.1032 40.9895C89.1032 42.2209 89.7173 43.5139 89.7173 43.5139C89.7173 43.5139 88.9357 43.446 88.3473 42.9762C87.355 42.1838 86.5558 40.9895 86.5558 40.9895V43.5139L85.2195 42.2098L81.9098 37.1246Z" fill="#816C57"/>
<path id="&#232;&#183;&#175;&#229;&#190;&#132; 116" fill-rule="evenodd" clip-rule="evenodd" d="M66.6208 24.3413C66.6208 24.3413 65.6102 25.1453 64.9356 26.6367C64.4257 27.7642 64.3123 29.9321 64.3123 29.9321C64.3123 29.9321 63.5944 29.6237 63.2408 28.9148C62.7726 27.976 62.6687 26.6367 62.6687 26.6367C62.6687 26.6367 61.9203 27.4449 61.7482 28.6133C61.46 30.5691 61.7482 32.8852 61.7482 32.8852C61.7482 32.8852 59.1086 29.5816 59.3343 26.4031C59.5689 23.0994 62.6687 19.9209 62.6687 19.9209C62.6687 19.9209 61.5588 21.3103 60.9895 23.1792C60.5359 24.6682 60.5498 26.9873 60.5498 26.9873C60.5498 26.9873 61.2592 25.4103 62.1621 24.3413C63.1405 23.1827 64.3123 22.5321 64.3123 22.5321C64.3123 22.5321 63.6571 23.5607 63.5553 24.6725C63.4799 25.4962 63.9577 26.4031 63.9577 26.4031C63.9577 26.4031 64.7216 25.2324 65.4447 24.6725C66.0531 24.2015 66.6208 24.3413 66.6208 24.3413Z" fill="#6F5C54"/>
</g>
</g>
<g id="&#231;&#188;&#150;&#231;&#187;&#132; 7">
<path id="&#232;&#183;&#175;&#229;&#190;&#132; 123" fill-rule="evenodd" clip-rule="evenodd" d="M75.8037 121.781C75.8037 121.781 78.9349 128.3 85.1995 133.734C87.5022 135.732 92.9384 136.646 92.9384 136.646C92.9384 136.646 98.013 135.463 100.577 133.352C107.042 128.031 110.996 121.781 110.996 121.781H75.8037Z" fill="#B7856D"/>
<path id="&#232;&#183;&#175;&#229;&#190;&#132; 126" fill-rule="evenodd" clip-rule="evenodd" d="M78.7409 125.419C78.7409 125.419 80.7877 130.137 82.6969 131.993C85.8518 135.06 88.8692 135.265 88.8692 135.265H93.0242L96.1034 135.88C96.1034 135.88 100.049 134.223 101.749 132.325C104.099 129.7 106.635 126.218 106.635 126.218L78.7409 125.419Z" fill="#C28F7F"/>
<path id="&#232;&#183;&#175;&#229;&#190;&#132; 117" fill-rule="evenodd" clip-rule="evenodd" d="M75.8038 120.443L93.1833 122.231L110.22 120.443L107.864 124.119L101.408 129.961L93.9406 131.993H90.058L84.7121 129.961L80.8678 127.512L79.1295 126.151L75.8038 120.443Z" fill="#450E10"/>
<path id="&#232;&#183;&#175;&#229;&#190;&#132; 118" fill-rule="evenodd" clip-rule="evenodd" d="M78.7409 121.012C78.7409 121.012 79.6707 123.307 82.0736 124.119C85.1174 125.147 92.9777 125.416 92.9777 125.416C92.9777 125.416 99.0625 125.41 101.407 124.864C105.902 123.818 106.635 121.784 106.635 121.784C106.635 121.784 99.3227 122.844 92.9777 122.669C85.3758 122.458 78.7409 121.012 78.7409 121.012Z" fill="white"/>
<path id="&#232;&#183;&#175;&#229;&#190;&#132; 119" fill-rule="evenodd" clip-rule="evenodd" d="M83.8103 128.841C83.8103 128.841 88.6564 129.283 93.1833 129.283C97.6257 129.283 101.749 128.841 101.749 128.841C101.749 128.841 100.185 130.631 98.9901 131.07C97.3178 131.685 94.8349 131.552 93.1039 131.552C91.31 131.552 88.9623 131.711 87.1071 131.07C85.8479 130.635 83.8103 128.841 83.8103 128.841Z" fill="white"/>
</g>
<g id="&#231;&#188;&#150;&#231;&#187;&#132; 6">
<path id="&#232;&#183;&#175;&#229;&#190;&#132; 120" d="M72.7196 118.049C72.7196 118.049 80.4708 122.596 93.4279 122.596C107.378 122.596 113.206 118.374 113.206 118.374" stroke="#9E7260" stroke-width="3"/>
<path id="&#232;&#183;&#175;&#229;&#190;&#132; 121" d="M73.1729 118.513C73.1729 118.513 82.8714 132.325 92.9631 132.325C103.092 132.325 112.446 119.34 112.446 119.34" stroke="#9E7260" stroke-width="3"/>
</g>
<path id="&#232;&#183;&#175;&#229;&#190;&#132; 122" fill-rule="evenodd" clip-rule="evenodd" d="M83.8103 133.352C83.8103 133.352 88.4545 135.29 92.688 135.439C95.9308 135.553 100.577 133.986 100.577 133.986C100.577 133.986 95.6646 137.294 92.2453 137.174C88.1884 137.031 83.8103 133.352 83.8103 133.352Z" fill="#A47565"/>
<path id="&#232;&#183;&#175;&#229;&#190;&#132; 124" d="M71.8281 117.264C71.8281 117.264 78.4898 121.684 92.9319 121.684C107.372 121.684 114.123 117.702 114.123 117.702" stroke="#C28F7F" stroke-width="2"/>
<path id="&#232;&#183;&#175;&#229;&#190;&#132; 125" fill-rule="evenodd" clip-rule="evenodd" d="M73.7369 117.718C73.7369 117.718 72.1291 116.74 71.6423 116.797C71.1556 116.855 71.002 117.461 71.1289 118.017C71.3396 118.94 71.7053 119.224 72.3177 119.755C72.93 120.286 74.3089 120.776 74.3089 120.776C74.3089 120.776 72.8771 119.324 72.6976 118.364C72.5912 117.794 73.7369 117.718 73.7369 117.718Z" fill="#C28F7F"/>
<path id="&#232;&#183;&#175;&#229;&#190;&#132; 125&#229;&#164;&#135;&#228;&#187;&#189;" fill-rule="evenodd" clip-rule="evenodd" d="M111.803 118.626C111.803 118.626 113.411 117.648 113.897 117.705C114.384 117.763 114.538 118.369 114.411 118.925C114.2 119.848 113.834 120.132 113.222 120.663C112.61 121.194 111.231 121.684 111.231 121.684C111.231 121.684 112.662 120.232 112.842 119.272C112.948 118.703 111.803 118.626 111.803 118.626Z" fill="#C28F7F"/>
<g id="&#231;&#188;&#150;&#231;&#187;&#132; 2">
<path id="&#232;&#183;&#175;&#229;&#190;&#132; 143" fill-rule="evenodd" clip-rule="evenodd" d="M84.6572 217.907H30.53L35.979 197.709L36.8389 177.396L39.6415 168.671L44.1006 162.325C44.1006 162.325 48.4911 159.893 53.4555 157.959C58.4199 156.026 69.0708 152.6 69.0708 152.6L74.2746 146.981H81.5949C81.5949 146.981 81.9809 148.345 81.5949 149.885C81.4491 150.467 80.3453 151.224 80.3453 151.224C80.3453 151.224 79.5692 151.758 78.7411 151.922C77.8114 152.107 76.8296 151.922 76.8296 151.922L77.5056 155.19L87.0662 162.17L88.4871 165.03L84.6572 170.943L85.406 209.145L84.6572 217.907Z" fill="#A2A185"/>
<path id="&#232;&#183;&#175;&#229;&#190;&#132; 137" fill-rule="evenodd" clip-rule="evenodd" d="M71.8282 164.181C71.8282 164.181 72.5825 171.878 73.836 172.367C75.7856 173.129 81.2084 169.37 83.8102 166.717C84.6919 165.818 83.8102 163.751 83.8102 163.751L75.7856 168.301L71.8282 164.181Z" fill="#898971"/>
<path id="&#232;&#183;&#175;&#229;&#190;&#132; 129" d="M75.8038 150.455C75.8038 150.455 75.6646 152.447 76.5939 153.196C81.8924 157.463 85.9478 159.612 87.9982 163.727C88.6294 164.993 84.4525 169.125 84.4525 169.125C84.4525 169.125 85.5322 181.602 85.5322 193.974C85.5322 204.648 84.4525 215.217 84.4525 215.217" stroke="#5F5E4C" stroke-width="4" stroke-linecap="round"/>
<path id="&#232;&#183;&#175;&#229;&#190;&#132; 131" d="M77.0995 168.301L74.981 215.217" stroke="#605F4B" stroke-width="2" stroke-linecap="round" stroke-linejoin="round"/>
<path id="&#232;&#183;&#175;&#229;&#190;&#132; 132" d="M75.7856 169.408L68.3135 176.067L57.5137 176.694L55.5415 175.462L53.4962 176.694L51.2358 176.067L49.6812 176.694H44.2739C44.2739 176.694 43.7189 171.825 44.9412 167.246C45.8606 163.802 48.5573 160.649 48.5573 160.649" stroke="#605F4B" stroke-width="2" stroke-linecap="round" stroke-linejoin="round"/>
<path id="&#232;&#183;&#175;&#229;&#190;&#132; 133" d="M74.9809 171.186L74.3088 188.107L72.6908 215.217" stroke="#605E4E" stroke-dasharray="4 2"/>
<path id="&#232;&#183;&#175;&#229;&#190;&#132; 134" d="M73.1729 168.671L67.5241 174.064H56.9319L54.7588 173.129L53.6062 174.655C53.6062 174.655 52.5392 174.064 51.397 174.064C50.1819 174.064 48.8916 174.655 48.8916 174.655H45.2941C45.2941 174.655 45.0306 170.566 46.3382 166.621C47.3516 163.563 49.9362 160.649 49.9362 160.649" stroke="#605E4E" stroke-dasharray="4 2"/>
<path id="&#232;&#183;&#175;&#229;&#190;&#132; 135" opacity="0.582736" fill-rule="evenodd" clip-rule="evenodd" d="M54.5648 164.181C54.5648 164.181 55.6023 173.179 56.3799 177.43C57.1575 181.68 58.4478 184.261 58.4478 184.261C58.4478 184.261 54.5419 180.755 53.294 174.323C52.6459 170.983 54.5648 164.181 54.5648 164.181Z" fill="#5F5B48"/>
<path id="&#232;&#183;&#175;&#229;&#190;&#132; 136" opacity="0.582736" fill-rule="evenodd" clip-rule="evenodd" d="M50.4369 168.301C50.4369 168.301 49.7363 171.705 49.4171 175.968C49.2264 178.514 49.4171 181.919 49.4171 181.919C49.4171 181.919 48.0682 176.695 48.2845 173.806C48.5781 169.886 50.4369 168.301 50.4369 168.301Z" fill="#5F5B48"/>
<path id="&#232;&#183;&#175;&#229;&#190;&#132; 138" fill-rule="evenodd" clip-rule="evenodd" d="M46.2086 186.969C46.2086 186.969 48.0935 189.178 49.3458 194.289C50.3634 198.442 50.6459 203.597 51.4621 208.673C51.8268 210.942 53.1303 215.93 53.1303 215.93L48.2547 217.058L47.3059 211.003L46.2086 186.969Z" fill="#898971"/>
<path id="&#232;&#183;&#175;&#229;&#190;&#132; 130" d="M69.0707 154.341C69.0707 154.341 70.7313 162.942 74.4405 168.016C75.0527 168.853 77.2522 167.649 78.1792 166.945C80.458 165.214 80.2581 165.252 82.697 163.751C83.1499 163.472 83.8101 163.751 83.8101 163.751" stroke="#5F5E4C" stroke-width="3" stroke-linecap="round"/>
<path id="&#232;&#183;&#175;&#229;&#190;&#132; 144" d="M31.1664 215.93C31.1664 215.93 33.9556 207.038 35.6239 196.358C37.0983 186.919 35.896 182.221 37.4518 175.691C39.6546 166.446 42.6746 162.998 45.2498 161.321C51.3016 157.381 67.524 153.322 67.524 153.322C67.524 153.322 70.0662 149.59 73.1728 147.83C76.4768 145.959 80.3452 146.061 80.3452 146.061" stroke="#5F5E4C" stroke-width="4" stroke-linecap="round"/>
</g>
<g id="&#231;&#188;&#150;&#231;&#187;&#132; 2&#229;&#164;&#135;&#228;&#187;&#189;">
<path id="&#232;&#183;&#175;&#229;&#190;&#132; 143_2" fill-rule="evenodd" clip-rule="evenodd" d="M99.9613 217.907H154.088L148.639 197.709L147.78 177.396L144.977 168.671L140.518 162.325C140.518 162.325 136.127 159.893 131.163 157.959C126.199 156.026 115.548 152.6 115.548 152.6L110.344 146.981H103.024C103.024 146.981 102.638 148.345 103.024 149.885C103.169 150.467 104.273 151.224 104.273 151.224C104.273 151.224 105.049 151.758 105.877 151.922C106.807 152.107 107.789 151.922 107.789 151.922L107.113 155.19L97.5522 162.17L96.1314 165.03L99.9613 170.943L99.2124 209.146L99.9613 217.907Z" fill="#A2A185"/>
<path id="&#232;&#183;&#175;&#229;&#190;&#132; 137_2" fill-rule="evenodd" clip-rule="evenodd" d="M112.79 164.181C112.79 164.181 112.036 171.878 110.782 172.368C108.833 173.129 103.41 169.371 100.808 166.717C99.9265 165.818 100.808 163.751 100.808 163.751L108.833 168.301L112.79 164.181Z" fill="#898971"/>
<path id="&#232;&#183;&#175;&#229;&#190;&#132; 129_2" d="M108.815 150.455C108.815 150.455 108.954 152.447 108.025 153.196C102.726 157.463 98.6708 159.612 96.6204 163.727C95.9892 164.993 100.166 169.125 100.166 169.125C100.166 169.125 99.0864 181.602 99.0864 193.974C99.0864 204.648 100.166 215.217 100.166 215.217" stroke="#5F5E4C" stroke-width="4" stroke-linecap="round"/>
<path id="&#232;&#183;&#175;&#229;&#190;&#132; 131_2" d="M107.519 168.301L109.637 215.217" stroke="#605F4B" stroke-width="2" stroke-linecap="round" stroke-linejoin="round"/>
<path id="&#232;&#183;&#175;&#229;&#190;&#132; 132_2" d="M108.833 169.408L116.305 176.067L127.105 176.694L129.077 175.462L131.122 176.694L133.383 176.067L134.937 176.694H140.345C140.345 176.694 140.9 171.825 139.677 167.246C138.758 163.802 136.061 160.649 136.061 160.649" stroke="#605F4B" stroke-width="2" stroke-linecap="round" stroke-linejoin="round"/>
<path id="&#232;&#183;&#175;&#229;&#190;&#132; 133_2" d="M109.637 171.186L110.31 188.107L111.928 215.217" stroke="#605E4E" stroke-dasharray="4 2"/>
<path id="&#232;&#183;&#175;&#229;&#190;&#132; 134_2" d="M111.446 168.671L117.094 174.064H127.687L129.86 173.129L131.012 174.655C131.012 174.655 132.079 174.064 133.221 174.064C134.436 174.064 135.727 174.655 135.727 174.655H139.324C139.324 174.655 139.588 170.566 138.28 166.621C137.267 163.563 134.682 160.649 134.682 160.649" stroke="#605E4E" stroke-dasharray="4 2"/>
<path id="&#232;&#183;&#175;&#229;&#190;&#132; 135_2" opacity="0.582736" fill-rule="evenodd" clip-rule="evenodd" d="M130.054 164.181C130.054 164.181 129.016 173.179 128.239 177.43C127.461 181.68 126.171 184.261 126.171 184.261C126.171 184.261 130.077 180.755 131.325 174.324C131.973 170.983 130.054 164.181 130.054 164.181Z" fill="#5F5B48"/>
<path id="&#232;&#183;&#175;&#229;&#190;&#132; 136_2" opacity="0.582736" fill-rule="evenodd" clip-rule="evenodd" d="M134.182 168.301C134.182 168.301 134.882 171.705 135.201 175.968C135.392 178.514 135.201 181.919 135.201 181.919C135.201 181.919 136.55 176.695 136.334 173.806C136.04 169.886 134.182 168.301 134.182 168.301Z" fill="#5F5B48"/>
<path id="&#232;&#183;&#175;&#229;&#190;&#132; 138_2" fill-rule="evenodd" clip-rule="evenodd" d="M138.41 186.969C138.41 186.969 136.525 189.178 135.273 194.289C134.255 198.442 133.973 203.597 133.157 208.674C132.792 210.942 131.488 215.93 131.488 215.93L136.364 217.058L137.313 211.003L138.41 186.969Z" fill="#898971"/>
<path id="&#232;&#183;&#175;&#229;&#190;&#132; 130_2" d="M115.548 154.341C115.548 154.341 113.887 162.942 110.178 168.016C109.566 168.853 107.366 167.649 106.439 166.945C104.161 165.214 104.361 165.253 101.922 163.751C101.469 163.472 100.808 163.751 100.808 163.751" stroke="#5F5E4C" stroke-width="3" stroke-linecap="round"/>
<path id="&#232;&#183;&#175;&#229;&#190;&#132; 144_2" d="M153.452 215.93C153.452 215.93 150.663 207.038 148.995 196.358C147.52 186.919 148.722 182.221 147.167 175.691C144.964 166.446 141.944 162.998 139.369 161.321C133.317 157.381 117.094 153.322 117.094 153.322C117.094 153.322 114.552 149.59 111.446 147.83C108.142 145.959 104.273 146.061 104.273 146.061" stroke="#5F5E4C" stroke-width="4" stroke-linecap="round"/>
</g>
</g>
</g>
</g>
</g>
<defs>
<linearGradient id="paint0_linear_188_1752" x1="68.5708" y1="45.0031" x2="87.2899" y2="64.2837" gradientUnits="userSpaceOnUse">
<stop stop-color="#402516"/>
<stop offset="1" stop-color="#7E4123"/>
</linearGradient>
</defs>
</svg>
