<svg width="188" height="188" viewBox="0 0 188 188" fill="none" xmlns="http://www.w3.org/2000/svg">
<rect width="188" height="188" fill="#E5E5E5"/>
<g id="Frame 109">
<rect width="1440" height="4305" transform="translate(-822 -2609)" fill="white"/>
<g id="Frame 90" clip-path="url(#clip0_0_1)">
<rect width="1440" height="1100" transform="translate(-822 -726)" fill="#5C39B1"/>
<g id="Frame 114">
<g id="Frame 98">
<g clip-path="url(#clip1_0_1)">
<rect x="-7" y="-75" width="400" height="338" rx="16" fill="#402A75"/>
<g id="Group 115">
<circle id="Ellipse 8" cx="94" cy="94" r="94" fill="white" fill-opacity="0.08"/>
<g id="Mask group">
<mask id="mask0_0_1" style="mask-type:alpha" maskUnits="userSpaceOnUse" x="0" y="0" width="188" height="188">
<circle id="Ellipse 7" cx="94" cy="94" r="94" fill="#C4C4C4"/>
</mask>
<g mask="url(#mask0_0_1)">
<g id="Group 66">
<g id="&#232;&#161;&#163;&#230;&#156;&#141;">
<path id="&#232;&#132;&#150;&#229;&#173;&#144;" d="M81.747 141.46L79.7341 141.656L80.5052 143.524L80.5054 143.524L80.5055 143.525L80.5056 143.525L80.5058 143.526L80.509 143.533L80.5262 143.577C80.5421 143.617 80.5663 143.679 80.5969 143.761C80.6583 143.926 80.745 144.168 80.8419 144.467C81.0372 145.07 81.2672 145.885 81.4189 146.756C81.5725 147.638 81.6331 148.509 81.5352 149.247C81.4374 149.985 81.2018 150.455 80.889 150.736C80.5311 151.058 79.8605 151.345 78.8367 151.512C77.8466 151.674 76.7032 151.697 75.5843 151.644C74.4738 151.591 73.4353 151.467 72.6712 151.354C72.2906 151.298 71.9815 151.245 71.7697 151.207C71.6639 151.188 71.5826 151.173 71.529 151.162L71.47 151.151L71.4569 151.148L71.4552 151.148L71.4548 151.148L71.4546 151.148L71.4546 151.148L69.2781 150.7L69.6772 152.886L72.3907 167.752L72.5796 168.787L73.6171 168.962L107.129 174.608L107.847 174.729L108.387 174.24L116.993 166.429L117.681 165.805L117.428 164.911L113.841 152.209L113.469 150.89L112.122 151.142L112.122 151.142L112.122 151.142L112.122 151.142L112.12 151.143L112.107 151.145L112.049 151.156C111.997 151.165 111.918 151.178 111.816 151.195C111.611 151.229 111.313 151.275 110.949 151.324C110.218 151.422 109.234 151.53 108.204 151.571C107.163 151.612 106.136 151.583 105.296 151.434C104.391 151.273 104.012 151.025 103.905 150.896C102.856 149.627 102.738 147.492 103.098 145.271C103.268 144.221 103.526 143.266 103.744 142.571C103.852 142.225 103.949 141.948 104.017 141.76C104.051 141.666 104.078 141.595 104.096 141.549L104.115 141.5L104.119 141.49L104.119 141.49L104.119 141.49L104.12 141.489L104.12 141.489L105.054 139.192L102.584 139.432L81.747 141.46Z" fill="#B7856D" stroke="#2B1A15" stroke-width="3"/>
<path id="&#232;&#183;&#175;&#229;&#190;&#132; 15" fill-rule="evenodd" clip-rule="evenodd" d="M74.2707 151.922C74.2707 151.922 76.8055 155.843 78.7409 156.661C83.6231 158.726 88.3632 161.723 92.8936 161.723C97.3026 161.723 102.998 157.735 107.378 155.737C108.157 155.383 109.292 154.867 110.219 154.218C110.805 153.809 110.997 151.922 110.997 151.922L115.211 152.829L119.417 219.887L69.0706 218.745L69.9716 155.737C69.9716 155.737 70.1529 153.499 70.9079 152.829C71.6629 152.159 74.2707 151.922 74.2707 151.922Z" fill="#F7F7F7" stroke="#969AA8" stroke-width="2"/>
</g>
<g id="&#229;&#183;&#166;&#232;&#128;&#179;">
<path id="&#232;&#183;&#175;&#229;&#190;&#132; 2" d="M46.574 80.8808L46.4273 80.5777L46.165 80.3664L45.2239 81.5344C46.165 80.3664 46.1647 80.3661 46.1644 80.3659L46.1636 80.3653L46.1618 80.3638L46.157 80.3599L46.1424 80.3483C46.1306 80.339 46.1145 80.3263 46.0943 80.3106C46.0539 80.2792 45.9972 80.2357 45.9254 80.182C45.782 80.0749 45.5777 79.9268 45.3237 79.7547C44.8184 79.4123 44.1024 78.9653 43.2669 78.5556C41.6945 77.7847 39.2762 76.9343 37.0321 77.7576C35.1923 78.4326 34.1778 80.1079 33.6397 81.3571C33.0826 82.6502 32.8674 83.8777 32.8302 84.2333L32.822 84.3112V84.3894C32.822 90.6954 32.9183 96.0026 36.8259 102.005C39.0846 105.475 42.1049 107.927 44.5231 109.502C45.7377 110.294 46.8157 110.874 47.5951 111.258C47.9853 111.451 48.3019 111.595 48.5249 111.692C48.6364 111.741 48.7247 111.778 48.7872 111.804C48.8184 111.817 48.8432 111.827 48.8613 111.834L48.8832 111.843L48.8904 111.845L48.893 111.846L48.894 111.847C48.8945 111.847 48.8949 111.847 49.4407 110.45L48.8949 111.847L49.9421 112.256L50.6286 111.366L56.6376 103.573L57.2041 102.838L56.7999 102.003L46.574 80.8808Z" fill="#B7856D" stroke="#2B1A15" stroke-width="3"/>
<path id="&#232;&#183;&#175;&#229;&#190;&#132; 3" fill-rule="evenodd" clip-rule="evenodd" d="M44.9396 87.3004C44.9396 87.3004 40.1497 83.0804 38.5026 85.1904C36.8556 87.3004 36.6548 90.9013 39.8681 97.5264C43.0814 104.152 49.8873 105.428 49.8873 105.428L44.9396 87.3004Z" fill="#9D6856"/>
<path id="&#232;&#183;&#175;&#229;&#190;&#132; 4" fill-rule="evenodd" clip-rule="evenodd" d="M45.3665 91.9259C45.3665 91.9259 41.4964 90.6577 41.4964 93.7417C41.4964 96.8257 47.3699 101.515 47.3699 101.515L45.3665 91.9259Z" fill="#B7856D"/>
<path id="&#232;&#183;&#175;&#229;&#190;&#132; 5" fill-rule="evenodd" clip-rule="evenodd" d="M38.7381 85.1061C38.7381 85.1061 39.8291 85.4309 41.7219 86.5904C43.6147 87.7498 45.5132 92.1799 45.5132 92.1799C45.5132 92.1799 45.7122 88.7155 44.9397 87.3007C44.3282 86.4136 43.5355 85.8415 42.918 85.4309C41.9564 84.7913 41.1014 84.5486 40.1441 84.5486C39.5108 84.5486 38.7381 85.1061 38.7381 85.1061Z" fill="#644034"/>
</g>
<g id="&#229;&#183;&#166;&#232;&#128;&#179;&#229;&#164;&#135;&#228;&#187;&#189;">
<path id="&#232;&#183;&#175;&#229;&#190;&#132; 2_2" d="M138.663 80.8808L138.809 80.5777L139.072 80.3664L140.013 81.5344C139.072 80.3664 139.072 80.3661 139.072 80.3659L139.073 80.3653L139.075 80.3638L139.08 80.3599L139.094 80.3483C139.106 80.339 139.122 80.3263 139.142 80.3106C139.183 80.2792 139.24 80.2357 139.311 80.182C139.455 80.0749 139.659 79.9268 139.913 79.7547C140.418 79.4123 141.134 78.9653 141.97 78.5556C143.542 77.7847 145.961 76.9343 148.205 77.7576C150.044 78.4326 151.059 80.1079 151.597 81.3571C152.154 82.6502 152.369 83.8777 152.407 84.2333L152.415 84.3112V84.3894C152.415 90.6954 152.318 96.0026 148.411 102.005C146.152 105.475 143.132 107.927 140.714 109.502C139.499 110.294 138.421 110.874 137.642 111.258C137.251 111.451 136.935 111.595 136.712 111.692C136.6 111.741 136.512 111.778 136.45 111.804C136.418 111.817 136.393 111.827 136.375 111.834L136.353 111.843L136.346 111.845L136.344 111.846L136.343 111.847C136.342 111.847 136.342 111.847 135.796 110.45L136.342 111.847L135.295 112.256L134.608 111.366L128.599 103.573L128.033 102.838L128.437 102.003L138.663 80.8808Z" fill="#B7856D" stroke="#2B1A15" stroke-width="3"/>
<path id="&#232;&#183;&#175;&#229;&#190;&#132; 3_2" fill-rule="evenodd" clip-rule="evenodd" d="M140.297 87.3004C140.297 87.3004 145.087 83.0804 146.734 85.1904C148.381 87.3004 148.582 90.9013 145.368 97.5264C142.155 104.152 135.349 105.428 135.349 105.428L140.297 87.3004Z" fill="#9D6856"/>
<path id="&#232;&#183;&#175;&#229;&#190;&#132; 4_2" fill-rule="evenodd" clip-rule="evenodd" d="M139.87 91.9259C139.87 91.9259 143.74 90.6577 143.74 93.7417C143.74 96.8257 137.867 101.515 137.867 101.515L139.87 91.9259Z" fill="#B7856D"/>
<path id="&#232;&#183;&#175;&#229;&#190;&#132; 5_2" fill-rule="evenodd" clip-rule="evenodd" d="M146.498 85.1061C146.498 85.1061 145.408 85.4309 143.515 86.5904C141.622 87.7498 139.723 92.1799 139.723 92.1799C139.723 92.1799 139.524 88.7155 140.297 87.3007C140.908 86.4136 141.701 85.8415 142.319 85.4309C143.28 84.7913 144.135 84.5486 145.093 84.5486C145.726 84.5486 146.498 85.1061 146.498 85.1061Z" fill="#644034"/>
</g>
<g id="&#232;&#132;&#184;">
<g id="&#229;&#189;&#162;&#231;&#138;&#182;&#231;&#187;&#147;&#229;&#144;&#136;">
<mask id="path-14-outside-1_0_1" maskUnits="userSpaceOnUse" x="38.6202" y="4.09082" width="109" height="146" fill="black">
<rect fill="white" x="38.6202" y="4.09082" width="109" height="146"/>
<path fill-rule="evenodd" clip-rule="evenodd" d="M137.36 102.43C140.762 94.6478 140.574 76.0762 140.574 76.0762L144.587 47.1925L93.1835 7.21463L93.1833 7.09087L93.1038 7.15267L93.0243 7.09082L93.0245 7.21435L41.6202 47.1926L45.6333 76.0763C45.6333 76.0763 45.4452 94.6478 48.8472 102.43C49.9004 105.804 50.4824 108.642 51.0136 111.233C52.3779 117.885 53.4078 122.908 61.2253 131.19C71.5387 142.118 91.3002 146.53 93.269 146.948L93.2691 146.981C93.2691 146.981 93.2957 146.975 93.3476 146.964C93.4007 146.976 93.4281 146.981 93.4281 146.981L93.428 146.947C95.372 146.525 114.675 142.111 124.982 131.19C132.8 122.908 133.83 117.885 135.194 111.233C135.725 108.642 136.307 105.804 137.36 102.43Z"/>
</mask>
<path fill-rule="evenodd" clip-rule="evenodd" d="M137.36 102.43C140.762 94.6478 140.574 76.0762 140.574 76.0762L144.587 47.1925L93.1835 7.21463L93.1833 7.09087L93.1038 7.15267L93.0243 7.09082L93.0245 7.21435L41.6202 47.1926L45.6333 76.0763C45.6333 76.0763 45.4452 94.6478 48.8472 102.43C49.9004 105.804 50.4824 108.642 51.0136 111.233C52.3779 117.885 53.4078 122.908 61.2253 131.19C71.5387 142.118 91.3002 146.53 93.269 146.948L93.2691 146.981C93.2691 146.981 93.2957 146.975 93.3476 146.964C93.4007 146.976 93.4281 146.981 93.4281 146.981L93.428 146.947C95.372 146.525 114.675 142.111 124.982 131.19C132.8 122.908 133.83 117.885 135.194 111.233C135.725 108.642 136.307 105.804 137.36 102.43Z" fill="#B7856D"/>
<path d="M140.574 76.0762L137.603 75.6634C137.582 75.8102 137.573 75.9584 137.575 76.1066L140.574 76.0762ZM137.36 102.43L134.612 101.229C134.568 101.329 134.529 101.432 134.497 101.536L137.36 102.43ZM144.587 47.1925L147.559 47.6054C147.706 46.5431 147.276 45.4828 146.429 44.8244L144.587 47.1925ZM93.1835 7.21463L90.1835 7.21991C90.1851 8.14386 90.6124 9.01553 91.3418 9.58276L93.1835 7.21463ZM93.1833 7.09087L96.1833 7.0856C96.1813 5.94076 95.5279 4.89688 94.499 4.39478C93.4702 3.89269 92.2452 4.01993 91.3415 4.72276L93.1833 7.09087ZM93.1038 7.15267L91.2621 9.5208C92.3454 10.3633 93.8623 10.3633 94.9456 9.52078L93.1038 7.15267ZM93.0243 7.09082L94.866 4.72269C93.9608 4.0187 92.7335 3.89232 91.7038 4.39706C90.6742 4.90181 90.0223 5.94937 90.0243 7.0961L93.0243 7.09082ZM93.0245 7.21435L94.8663 9.58247C95.5985 9.01296 96.0262 8.13673 96.0245 7.20907L93.0245 7.21435ZM41.6202 47.1926L39.7785 44.8245C38.9319 45.4829 38.5012 46.5431 38.6488 47.6054L41.6202 47.1926ZM45.6333 76.0763L48.6331 76.1066C48.6346 75.9584 48.6251 75.8103 48.6047 75.6634L45.6333 76.0763ZM48.8472 102.43L51.711 101.537C51.6783 101.432 51.64 101.329 51.5961 101.229L48.8472 102.43ZM51.0136 111.233L53.9524 110.63L51.0136 111.233ZM61.2253 131.19L63.407 129.131H63.407L61.2253 131.19ZM93.269 146.948L96.269 146.943C96.2666 145.528 95.2758 144.307 93.8916 144.013L93.269 146.948ZM93.2691 146.981L90.2691 146.986C90.2707 147.887 90.6766 148.739 91.3749 149.307C92.0732 149.876 92.99 150.101 93.8721 149.92L93.2691 146.981ZM93.3476 146.964L93.9608 144.028C93.5518 143.942 93.1294 143.943 92.7207 144.031L93.3476 146.964ZM93.4281 146.981L92.8384 149.922C93.7208 150.099 94.636 149.871 95.3316 149.3C96.0272 148.729 96.4297 147.876 96.4281 146.976L93.4281 146.981ZM93.428 146.947L92.7913 144.015C91.41 144.315 90.4255 145.539 90.428 146.952L93.428 146.947ZM124.982 131.19L122.801 129.131L124.982 131.19ZM135.194 111.233L132.255 110.63L135.194 111.233ZM140.574 76.0762C137.575 76.1066 137.575 76.1064 137.575 76.1063C137.575 76.1063 137.575 76.1062 137.575 76.1063C137.575 76.1065 137.575 76.107 137.575 76.1078C137.575 76.1093 137.575 76.1119 137.575 76.1156C137.575 76.1231 137.575 76.1349 137.575 76.1511C137.575 76.1834 137.575 76.2328 137.576 76.2986C137.576 76.43 137.577 76.6265 137.576 76.8808C137.574 77.3895 137.569 78.1291 137.551 79.0424C137.516 80.8713 137.435 83.3859 137.25 86.1332C136.869 91.7938 136.075 97.8804 134.612 101.229L140.109 103.632C142.048 99.1978 142.861 92.1073 143.236 86.5364C143.43 83.668 143.514 81.0533 143.55 79.1568C143.568 78.2075 143.574 77.4353 143.576 76.898C143.577 76.6293 143.576 76.4192 143.576 76.2748C143.575 76.2026 143.575 76.1468 143.575 76.1084C143.575 76.0891 143.574 76.0742 143.574 76.0638C143.574 76.0586 143.574 76.0544 143.574 76.0514C143.574 76.0499 143.574 76.0487 143.574 76.0478C143.574 76.0473 143.574 76.0468 143.574 76.0466C143.574 76.0462 143.574 76.0459 140.574 76.0762ZM141.616 46.7797L137.603 75.6634L143.546 76.4891L147.559 47.6054L141.616 46.7797ZM91.3418 9.58276L142.746 49.5606L146.429 44.8244L95.0252 4.84651L91.3418 9.58276ZM96.1835 7.20936L96.1833 7.0856L90.1833 7.09614L90.1835 7.21991L96.1835 7.20936ZM91.3415 4.72276L91.2621 4.78456L94.9456 9.52078L95.025 9.45898L91.3415 4.72276ZM91.1826 9.45896L91.2621 9.5208L94.9456 4.78453L94.866 4.72269L91.1826 9.45896ZM96.0245 7.20907L96.0243 7.08554L90.0243 7.0961L90.0245 7.21963L96.0245 7.20907ZM91.1828 4.84623L39.7785 44.8245L43.462 49.5607L94.8663 9.58247L91.1828 4.84623ZM38.6488 47.6054L42.6618 76.4891L48.6047 75.6634L44.5917 46.7797L38.6488 47.6054ZM45.6333 76.0763C42.6334 76.0459 42.6334 76.0462 42.6334 76.0467C42.6334 76.0469 42.6334 76.0474 42.6334 76.0478C42.6334 76.0488 42.6334 76.05 42.6334 76.0515C42.6333 76.0545 42.6333 76.0586 42.6332 76.0638C42.6331 76.0743 42.633 76.0892 42.6329 76.1084C42.6326 76.1469 42.6323 76.2026 42.632 76.2748C42.6314 76.4192 42.6311 76.6294 42.6318 76.8981C42.6334 77.4354 42.6395 78.2075 42.6576 79.1569C42.6938 81.0534 42.7781 83.6681 42.9713 86.5365C43.3465 92.1073 44.1601 99.1979 46.0984 103.632L51.5961 101.229C50.1324 97.8804 49.339 91.7938 48.9577 86.1333C48.7727 83.386 48.6914 80.8713 48.6565 79.0425C48.6391 78.1291 48.6333 77.3896 48.6318 76.8808C48.6311 76.6265 48.6314 76.4301 48.6319 76.2986C48.6322 76.2329 48.6325 76.1834 48.6327 76.1511C48.6329 76.135 48.633 76.1231 48.633 76.1157C48.633 76.112 48.6331 76.1093 48.6331 76.1078C48.6331 76.1071 48.6331 76.1066 48.6331 76.1064C48.6331 76.1063 48.6331 76.1063 48.6331 76.1063C48.6331 76.1064 48.6331 76.1066 45.6333 76.0763ZM45.9835 103.324C46.9873 106.54 47.5437 109.246 48.0748 111.835L53.9524 110.63C53.421 108.038 52.8135 105.069 51.711 101.537L45.9835 103.324ZM48.0748 111.835C48.7501 115.129 49.4028 118.363 50.9638 121.831C52.5388 125.331 54.967 128.93 59.0436 133.25L63.407 129.131C59.6662 125.168 57.6706 122.114 56.4352 119.369C55.1858 116.593 54.6414 113.989 53.9524 110.63L48.0748 111.835ZM59.0436 133.25C64.6559 139.196 72.6671 143.228 79.2879 145.806C85.9701 148.407 91.5743 149.655 92.6465 149.883L93.8916 144.013C92.995 143.823 87.734 142.655 81.4648 140.215C75.1344 137.75 68.108 134.112 63.407 129.131L59.0436 133.25ZM96.2691 146.976L96.269 146.943L90.269 146.953L90.2691 146.986L96.2691 146.976ZM92.7207 144.031C92.6988 144.035 92.6833 144.039 92.6741 144.04C92.6695 144.041 92.6665 144.042 92.6652 144.042C92.6645 144.042 92.6643 144.043 92.6644 144.043C92.6645 144.042 92.6647 144.042 92.6649 144.042C92.6651 144.042 92.6652 144.042 92.6654 144.042C92.6655 144.042 92.6656 144.042 92.6657 144.042C92.6658 144.042 92.6659 144.042 92.6659 144.042C92.6659 144.042 92.666 144.042 92.666 144.042C92.666 144.042 92.666 144.042 92.666 144.042C92.6661 144.042 92.6661 144.042 93.2691 146.981C93.8721 149.92 93.8721 149.92 93.8721 149.92C93.8721 149.92 93.8722 149.92 93.8722 149.92C93.8722 149.92 93.8722 149.92 93.8723 149.92C93.8723 149.92 93.8724 149.92 93.8725 149.92C93.8726 149.92 93.8727 149.92 93.8729 149.92C93.8732 149.919 93.8735 149.919 93.8739 149.919C93.8745 149.919 93.8754 149.919 93.8763 149.919C93.8781 149.918 93.8803 149.918 93.8829 149.917C93.8882 149.916 93.8951 149.915 93.9037 149.913C93.9208 149.91 93.9444 149.905 93.9744 149.898L92.7207 144.031ZM92.7343 149.901C92.7649 149.907 92.789 149.912 92.8064 149.916C92.8151 149.918 92.8222 149.919 92.8275 149.92C92.8302 149.921 92.8324 149.921 92.8342 149.922C92.8351 149.922 92.8359 149.922 92.8366 149.922C92.837 149.922 92.8373 149.922 92.8376 149.922C92.8377 149.922 92.8379 149.922 92.838 149.922C92.8381 149.922 92.8381 149.922 92.8382 149.922C92.8382 149.922 92.8383 149.922 92.8383 149.922C92.8383 149.922 92.8383 149.922 92.8383 149.922C92.8384 149.922 92.8384 149.922 93.4281 146.981C94.0178 144.04 94.0178 144.04 94.0178 144.04C94.0178 144.04 94.0178 144.04 94.0179 144.04C94.0179 144.04 94.0179 144.04 94.0179 144.04C94.018 144.04 94.0181 144.04 94.0181 144.04C94.0182 144.04 94.0183 144.04 94.0184 144.04C94.0186 144.04 94.0188 144.04 94.0189 144.04C94.0192 144.04 94.0193 144.04 94.0194 144.04C94.0195 144.04 94.0192 144.04 94.0185 144.04C94.017 144.039 94.0139 144.039 94.0091 144.038C93.9995 144.036 93.9834 144.032 93.9608 144.028L92.7343 149.901ZM96.4281 146.976L96.428 146.942L90.428 146.952L90.4281 146.986L96.4281 146.976ZM122.801 129.131C118.093 134.119 111.169 137.755 104.963 140.217C98.8129 142.656 93.6737 143.824 92.7913 144.015L94.0647 149.879C95.1264 149.648 100.611 148.398 107.175 145.794C113.683 143.213 121.565 139.182 127.164 133.25L122.801 129.131ZM132.255 110.63C131.566 113.989 131.022 116.593 129.772 119.369C128.537 122.114 126.541 125.168 122.801 129.131L127.164 133.25C131.241 128.93 133.669 125.331 135.244 121.831C136.805 118.363 137.457 115.129 138.133 111.835L132.255 110.63ZM134.497 101.536C133.394 105.069 132.787 108.038 132.255 110.63L138.133 111.835C138.664 109.246 139.22 106.54 140.224 103.324L134.497 101.536Z" fill="#2B1A15" mask="url(#path-14-outside-1_0_1)"/>
</g>
</g>
<g id="&#231;&#156;&#188;&#233;&#131;&#168;">
<g id="&#231;&#188;&#150;&#231;&#187;&#132; 8">
<path id="&#232;&#183;&#175;&#229;&#190;&#132; 6" fill-rule="evenodd" clip-rule="evenodd" d="M56.249 86.2988C56.249 86.2988 56.3135 94.0197 67.9126 96.3148C71.5514 97.0348 81.8921 93.4888 81.8921 93.4888L56.249 86.2988Z" fill="#A26D5A"/>
<path id="&#231;&#153;&#189;bg" fill-rule="evenodd" clip-rule="evenodd" d="M57.0899 84.2702L56.5668 84.72C56.5668 84.72 57.4519 93.5238 66.9916 95.4056C74.335 96.8542 84.7121 92.1494 84.7121 92.1494L81.016 86.4193L73.2613 82.9082L63.6531 82.6448L57.0899 84.2702Z" fill="white"/>
<g id="&#231;&#156;&#188;&#231;&#143;&#160;">
<ellipse id="&#230;&#164;&#173;&#229;&#156;&#134;&#229;&#189;&#162;" cx="70.6009" cy="88.0908" rx="8.14013" ry="6.62135" fill="black"/>
<path id="&#229;&#189;&#162;&#231;&#138;&#182;&#231;&#187;&#147;&#229;&#144;&#136;_2" fill-rule="evenodd" clip-rule="evenodd" d="M71.1528 92.8961C74.2622 92.8961 76.7828 90.5585 76.7828 87.6751C76.7828 84.7916 74.2622 82.4541 71.1528 82.4541C68.0434 82.4541 65.5228 84.7916 65.5228 87.6751C65.5228 90.5585 68.0434 92.8961 71.1528 92.8961ZM71.3977 91.0802C73.8311 91.0802 75.8038 89.2508 75.8038 86.9942C75.8038 84.7376 73.8311 82.9082 71.3977 82.9082C68.9643 82.9082 66.9917 84.7376 66.9917 86.9942C66.9917 89.2508 68.9643 91.0802 71.3977 91.0802Z" fill="#655C58"/>
<rect id="&#231;&#159;&#169;&#229;&#189;&#162;" x="67.481" y="84.2703" width="6.8539" height="6.35597" rx="3.17799" fill="black"/>
<path id="&#232;&#183;&#175;&#229;&#190;&#132; 7" fill-rule="evenodd" clip-rule="evenodd" d="M70.5353 84.4868L67.355 86.7949C67.355 86.7949 65.2631 85.3775 66.7866 83.4152C68.3101 81.4529 70.5353 84.4868 70.5353 84.4868Z" fill="white"/>
</g>
<path id="&#231;&#156;&#188;&#231;&#157;&#145;" fill-rule="evenodd" clip-rule="evenodd" d="M55.0701 83.6662C55.0701 83.6662 56.2252 83.0647 57.022 82.7773C61.8143 81.0486 67.8839 80.9668 74.0162 82.3365C79.0401 83.6232 82.9712 86.3811 84.9627 90.6264C85.1906 91.1121 85.1994 91.9105 85.1994 91.9105C85.1994 91.9105 84.7743 92.1926 84.7119 92.1496C84.6495 92.1066 84.3748 91.6034 84.276 91.4734C83.7365 90.7632 83.34 89.9843 83.1064 89.6697C82.2338 88.495 80.6899 87.3742 79.1985 86.4357C76.6647 84.8413 75.8772 84.4873 72.2578 83.8656C70.9665 83.6438 67.6192 83.3997 63.1265 83.8656C57.0689 84.4873 56.6051 84.951 56.6051 84.951C56.6051 84.951 56.6883 85.6558 56.821 86.4357C57.018 87.2162 57.3023 88.0501 57.3023 88.0501L57.5692 88.7203L57.022 88.3641C57.022 88.3641 56.0503 87.0925 55.6487 86.0461C55.187 84.8432 55.0701 83.6662 55.0701 83.6662Z" fill="black"/>
</g>
<path id="&#232;&#183;&#175;&#229;&#190;&#132; 127" fill-rule="evenodd" clip-rule="evenodd" d="M58.3828 80.7021C58.3828 80.7021 62.8406 79.1272 69.0708 78.8663C73.0198 78.7009 78.7411 79.8495 78.7411 79.8495C78.7411 79.8495 72.8202 77.5693 68.3401 77.7569C62.641 77.9956 58.3828 80.7021 58.3828 80.7021Z" fill="#A9755C"/>
<path id="&#232;&#183;&#175;&#229;&#190;&#132; 128" fill-rule="evenodd" clip-rule="evenodd" d="M81.9098 69.4613C81.9098 69.4613 83.025 70.3552 83.7388 71.9923C84.1286 72.8862 84.1169 74.5233 84.1169 74.5233C84.1169 74.5233 72.077 74.0368 63.1138 75.1953C56.3896 76.0643 52.7422 78.8661 52.7422 78.8661C52.7422 78.8661 53.1117 77.0092 54.2005 75.1953C54.8653 74.0879 55.0702 73.473 56.2492 73.0235C59.0415 71.9591 62.4491 71.3185 66.4667 70.5693C69.1404 70.0707 74.335 69.0765 74.335 69.0765C74.335 69.0765 76.6034 68.9679 78.7411 69.0765C80.3907 69.1603 81.9098 69.4613 81.9098 69.4613Z" fill="black"/>
</g>
<g id="&#231;&#156;&#188;&#233;&#131;&#168;&#229;&#164;&#135;&#228;&#187;&#189;">
<g id="&#231;&#188;&#150;&#231;&#187;&#132; 8_2">
<path id="&#232;&#183;&#175;&#229;&#190;&#132; 6_2" fill-rule="evenodd" clip-rule="evenodd" d="M130.159 86.2988C130.159 86.2988 130.095 94.0197 118.496 96.3148C114.857 97.0348 104.516 93.4888 104.516 93.4888L130.159 86.2988Z" fill="#A26D5A"/>
<path id="&#231;&#153;&#189;bg_2" fill-rule="evenodd" clip-rule="evenodd" d="M129.319 84.2702L129.842 84.72C129.842 84.72 128.957 93.5238 119.417 95.4056C112.074 96.8542 101.697 92.1494 101.697 92.1494L105.393 86.4193L113.147 82.9082L122.755 82.6448L129.319 84.2702Z" fill="white"/>
<g id="&#231;&#156;&#188;&#231;&#143;&#160;_2">
<ellipse id="&#230;&#164;&#173;&#229;&#156;&#134;&#229;&#189;&#162;_2" cx="8.14013" cy="6.62135" rx="8.14013" ry="6.62135" transform="matrix(-1 0 0 1 123.948 81.4695)" fill="black"/>
<path id="&#229;&#189;&#162;&#231;&#138;&#182;&#231;&#187;&#147;&#229;&#144;&#136;_3" fill-rule="evenodd" clip-rule="evenodd" d="M115.256 92.8961C112.146 92.8961 109.626 90.5585 109.626 87.6751C109.626 84.7916 112.146 82.4541 115.256 82.4541C118.365 82.4541 120.886 84.7916 120.886 87.6751C120.886 90.5585 118.365 92.8961 115.256 92.8961ZM115.011 91.0802C112.577 91.0802 110.605 89.2508 110.605 86.9942C110.605 84.7376 112.577 82.9082 115.011 82.9082C117.444 82.9082 119.417 84.7376 119.417 86.9942C119.417 89.2508 117.444 91.0802 115.011 91.0802Z" fill="#655C58"/>
<rect id="&#231;&#159;&#169;&#229;&#189;&#162;_2" width="6.8539" height="6.35597" rx="3.17799" transform="matrix(-1 0 0 1 118.927 84.2703)" fill="black"/>
<path id="&#232;&#183;&#175;&#229;&#190;&#132; 7_2" fill-rule="evenodd" clip-rule="evenodd" d="M115.873 84.4868L119.053 86.7949C119.053 86.7949 121.145 85.3775 119.622 83.4152C118.098 81.4529 115.873 84.4868 115.873 84.4868Z" fill="white"/>
</g>
<path id="&#231;&#156;&#188;&#231;&#157;&#145;_2" fill-rule="evenodd" clip-rule="evenodd" d="M131.338 83.6662C131.338 83.6662 130.183 83.0647 129.386 82.7773C124.594 81.0486 118.524 80.9668 112.392 82.3365C107.368 83.6232 103.437 86.3811 101.446 90.6264C101.218 91.1121 101.209 91.9105 101.209 91.9105C101.209 91.9105 101.634 92.1926 101.696 92.1496C101.759 92.1066 102.033 91.6034 102.132 91.4734C102.672 90.7632 103.068 89.9843 103.302 89.6697C104.174 88.495 105.718 87.3742 107.21 86.4357C109.744 84.8413 110.531 84.4873 114.15 83.8656C115.442 83.6438 118.789 83.3997 123.282 83.8656C129.339 84.4873 129.803 84.951 129.803 84.951C129.803 84.951 129.72 85.6558 129.587 86.4357C129.39 87.2162 129.106 88.0501 129.106 88.0501L128.839 88.7203L129.386 88.3641C129.386 88.3641 130.358 87.0925 130.76 86.0461C131.221 84.8432 131.338 83.6662 131.338 83.6662Z" fill="black"/>
</g>
<path id="&#232;&#183;&#175;&#229;&#190;&#132; 127_2" fill-rule="evenodd" clip-rule="evenodd" d="M128.026 80.7021C128.026 80.7021 123.568 79.1272 117.338 78.8663C113.389 78.7009 107.667 79.8495 107.667 79.8495C107.667 79.8495 113.588 77.5693 118.068 77.7569C123.767 77.9956 128.026 80.7021 128.026 80.7021Z" fill="#A9755C"/>
<path id="&#232;&#183;&#175;&#229;&#190;&#132; 128_2" fill-rule="evenodd" clip-rule="evenodd" d="M104.499 69.4613C104.499 69.4613 103.383 70.3552 102.669 71.9923C102.28 72.8862 102.291 74.5233 102.291 74.5233C102.291 74.5233 114.331 74.0368 123.295 75.1953C130.019 76.0643 133.666 78.8661 133.666 78.8661C133.666 78.8661 133.297 77.0092 132.208 75.1953C131.543 74.0879 131.338 73.473 130.159 73.0235C127.367 71.9591 123.959 71.3185 119.942 70.5693C117.268 70.0707 112.073 69.0765 112.073 69.0765C112.073 69.0765 109.805 68.9679 107.667 69.0765C106.018 69.1603 104.499 69.4613 104.499 69.4613Z" fill="black"/>
</g>
<g id="&#233;&#188;&#187;&#229;&#173;&#144;">
<path id="&#229;&#189;&#162;&#231;&#138;&#182;&#231;&#187;&#147;&#229;&#144;&#136;_4" fill-rule="evenodd" clip-rule="evenodd" d="M86.43 113.457C82.8818 111.309 83.0667 107.781 83.0667 107.781L84.7118 106.297C84.7118 106.297 84.3593 108.314 85.1993 109.176C86.0393 110.037 88.0024 109.671 88.0024 109.671C88.0024 109.671 89.3175 111.162 90.4224 111.647C91.4115 112.081 92.6456 112.127 92.8936 112.132C93.1417 112.127 94.3758 112.081 95.3648 111.647C96.4698 111.162 97.7848 109.671 97.7848 109.671C97.7848 109.671 99.748 110.037 100.588 109.176C101.428 108.314 101.075 106.297 101.075 106.297L102.721 107.781C102.721 107.781 103.35 110.911 99.3572 113.457C95.8022 115.724 93.4179 115.973 92.9382 116V116.003C92.9382 116.003 92.9325 116.003 92.9212 116.001C92.8734 116.003 92.849 116.003 92.849 116.003V115.99C92.3306 115.904 89.6177 115.387 86.43 113.457Z" fill="#A06958"/>
<path id="&#229;&#189;&#162;&#231;&#138;&#182;&#231;&#187;&#147;&#229;&#144;&#136;_5" fill-rule="evenodd" clip-rule="evenodd" d="M102.388 107.805C102.059 107.109 100.734 105.651 100.734 105.651C100.734 105.651 101.413 108.742 101.011 109.611C100.609 110.48 97.8636 110.266 97.8636 110.266C97.8636 110.266 96.6684 111.735 95.2283 112.613C94.2338 113.22 92.978 113.401 92.978 113.401V114.881C92.978 114.881 94.8736 114.548 95.8569 113.859C96.601 113.388 97.1006 112.864 97.5091 112.436C97.9243 112.001 98.2455 111.664 98.6338 111.582C98.9035 111.525 99.249 111.507 99.6254 111.487C100.742 111.429 102.13 111.357 102.619 110.206C102.822 109.715 102.818 108.714 102.388 107.805ZM84.712 105.652C84.712 105.652 83.3873 107.11 83.0581 107.806C82.6282 108.714 82.6244 109.716 82.8273 110.206C83.3157 111.358 84.7042 111.43 85.8208 111.488C86.1972 111.507 86.5427 111.525 86.8124 111.582C87.2007 111.665 87.5218 112.001 87.9371 112.437C88.3456 112.865 88.8452 113.389 89.5893 113.86C90.5726 114.548 92.4682 114.881 92.4682 114.881V114.881H92.9778V113.401H92.4681V113.401C92.4591 113.4 91.2088 113.218 90.2179 112.614C88.7777 111.735 87.5826 110.266 87.5826 110.266C87.5826 110.266 84.8372 110.481 84.4349 109.612C84.0327 108.743 84.712 105.652 84.712 105.652Z" fill="#5F3B2F"/>
</g>
<path id="&#231;&#159;&#169;&#229;&#189;&#162;&#229;&#164;&#135;&#228;&#187;&#189; 3" d="M85.6951 102.228C85.4152 101.259 85.9816 100.276 86.9603 100.033L90.8629 99.0633L91.8765 102.572L87.9739 103.541C86.9953 103.784 85.975 103.196 85.6951 102.228Z" fill="#E9BA92"/>
<path id="&#231;&#159;&#169;&#229;&#189;&#162;&#229;&#164;&#135;&#228;&#187;&#189; 4" d="M94.5245 99.063L98.4271 100.033C99.4058 100.276 99.9722 101.258 99.6923 102.227C99.4124 103.196 98.3921 103.784 97.4135 103.541L93.5109 102.571L94.5245 99.063Z" fill="#E9BA92"/>
<path id="&#231;&#159;&#169;&#229;&#189;&#162;_3" fill-rule="evenodd" clip-rule="evenodd" d="M90.001 99.2525L92.723 98.6248L95.8757 99.2525V102.885L92.9319 102.431L90.001 102.885V99.2525Z" fill="#F2C8A4"/>
<g id="&#229;&#164;&#180;&#229;&#143;&#145;">
<path id="bg" fill-rule="evenodd" clip-rule="evenodd" d="M60.3454 44.2949C60.3454 44.2949 59.7137 46.0405 57.7997 47.0424C56.3155 47.8193 53.5491 47.8526 53.5491 47.8526C53.5491 47.8526 53.381 49.6039 52.828 51.1547C51.7057 54.3024 50.2059 56.8156 50.2059 56.8156C50.2059 56.8156 49.5996 58.0371 49.4858 58.8456C49.1463 61.2574 49.1419 64.0209 48.6709 66.3002C47.7422 70.7953 46.462 74.936 46.462 74.936C46.462 74.936 46.1555 78.054 46.462 80.6845C46.9378 84.768 48.0349 88.364 48.0349 88.364C48.0349 88.364 43.3073 86.0814 40.6061 81.3866C38.1028 77.0356 39.4019 71.1983 39.4019 71.1983C39.4019 71.1983 36.9923 67.4965 36.4701 63.0548C35.9594 58.7117 37.5128 53.8661 37.5128 53.8661C37.5128 53.8661 37.0261 47.0345 38.3076 42.5857C39.8675 37.1708 43.1955 34.1387 43.1955 34.1387C43.1955 34.1387 44.5627 28.9497 46.462 27.1017C48.8874 24.7418 51.8449 25.7231 51.8449 25.7231C51.8449 25.7231 53.0279 23.7326 54.2942 22.3563C56.0054 20.4964 58.169 19.6038 58.169 19.6038C58.169 19.6038 61.8948 13.6673 66.2155 11.0192C72.1033 7.41071 82.7758 7.09056 82.7758 7.09056C82.7758 7.09056 88.1791 6.18979 93.1037 4.25624C95.5152 3.30942 97.7004 0.800449 97.7004 0.800449L99.8551 -1.60693L98.4588 7.09056C98.4588 7.09056 107.652 8.81093 116.586 8.24467C121.658 7.92319 126.472 5.31509 126.472 5.31509C126.472 5.31509 126.741 7.56682 125.836 9.27837C124.501 11.8035 121.992 13.7885 121.992 13.7885C121.992 13.7885 132.696 18.0216 140.351 24.3812C148.646 31.2725 155.863 45.1404 155.863 45.1404L145.622 35.6526L147.9 40.1357C147.9 40.1357 151.941 50.1065 152.794 59.6369C153.448 66.9469 150.915 73.0977 150.915 73.0977L149.173 68.4161L147.127 77.8422C147.127 77.8422 144.578 78.5944 143.74 79.7792C141.827 82.4836 141.625 85.6206 141.625 85.6206L138.975 91.556L137.867 70.3363C137.867 70.3363 136.07 67.1435 133.131 66.3002C127.435 64.6655 120.597 64.8567 120.597 64.8567C120.597 64.8567 113.116 63.6616 107.378 60.5487C102.047 57.6563 98.4588 52.8461 98.4588 52.8461C98.4588 52.8461 99.7796 58.9198 104.227 62.2044C107.911 64.9251 113.923 64.8567 113.923 64.8567C113.923 64.8567 111.785 68.4161 105.044 68.4161C97.7005 68.4161 91.8546 64.0531 91.8546 64.0531C91.8546 64.0531 88.5768 61.071 86.4023 57.6415C83.1838 52.5656 84.5273 51.9558 81.0685 47.0424C79.228 44.4279 78.0687 43.188 76.7828 42.5857C75.8708 42.1585 74.3833 43.3652 71.9256 43.5244C69.7325 43.6664 67.481 43.188 67.481 43.188C67.481 43.188 65.8708 44.3408 64.0466 44.6238C62.3029 44.8943 60.3454 44.2949 60.3454 44.2949Z" fill="#27100B"/>
<g id="&#231;&#188;&#150;&#231;&#187;&#132; 4">
<path id="&#232;&#183;&#175;&#229;&#190;&#132; 105" fill-rule="evenodd" clip-rule="evenodd" d="M42.6262 38.8584C42.6262 38.8584 41.8436 44.7534 42.6262 47.3268C44.0253 51.9271 45.5537 50.7369 46.3531 52.9227C46.7207 53.9278 46.1241 56.1602 45.5537 56.7127C43.7575 58.4527 41.62 57.5077 41.62 57.5077C41.62 57.5077 39.4764 51.7415 39.7299 47.0422C39.9795 42.4169 42.6262 38.8584 42.6262 38.8584Z" fill="#3A1F14"/>
<path id="&#232;&#183;&#175;&#229;&#190;&#132; 106" fill-rule="evenodd" clip-rule="evenodd" d="M48.1455 29.2566C48.1455 29.2566 47.3503 34.5808 48.1455 36.8729C49.6485 41.2052 52.7419 42.5054 52.7419 42.5054C52.7419 42.5054 52.0487 43.7976 51.2933 43.9118C49.3626 44.2038 47.3697 43.3177 47.3697 43.3177C47.3697 43.3177 49.1948 46.1813 49.887 49.0845C50.0893 49.9329 49.5694 51.1981 49.1588 50.8211C46.4663 48.3493 45.664 47.6699 44.8855 42.5054C44.3178 38.7386 44.9108 35.4406 46.4663 32.0125C47.3697 30.0213 48.1455 29.2566 48.1455 29.2566Z" fill="#3A1F14"/>
<path id="&#232;&#183;&#175;&#229;&#190;&#132; 107" fill-rule="evenodd" clip-rule="evenodd" d="M81.8922 8.99511C81.8922 8.99511 87.6762 8.10679 92.9383 6.38247C95.1534 5.6566 96.8466 4.09473 96.8466 4.09473C96.8466 4.09473 96.2596 6.49856 94.9775 7.0903C89.9304 9.41971 88.6405 8.11491 83.6699 10.7325C81.053 12.1107 76.65 13.5803 74.3349 15.3103C72.6281 16.5858 71.3975 19.508 71.3975 19.508C71.3975 19.508 72.7102 18.1568 74.3349 17.3747C75.7198 16.708 77.4168 16.6102 77.4168 16.6102C77.4168 16.6102 70.3947 21.2004 69.0707 26.8658C67.795 32.3245 72.2173 38.8583 72.2173 38.8583C72.2173 38.8583 68.3441 38.3979 65.5227 36.6401C62.3573 34.668 60.2435 31.3987 60.2435 31.3987C60.2435 31.3987 59.9642 33.2539 60.2435 34.7648C60.6 36.6929 61.5152 38.2767 61.5152 38.2767C61.5152 38.2767 59.9266 38.9758 58.493 38.2767C56.3256 37.2198 57.0262 38.1631 54.3131 34.7648C52.9917 33.1096 52.9244 30.435 53.6427 27.9294C54.6926 24.2668 57.8494 22.4282 57.8494 22.4282L59.1321 26.0712C59.1321 26.0712 60.3961 17.9357 66.1445 13.6229C71.7761 9.39769 81.8922 8.99511 81.8922 8.99511Z" fill="#3A1F14"/>
<path id="&#232;&#183;&#175;&#229;&#190;&#132; 108" fill-rule="evenodd" clip-rule="evenodd" d="M75.8035 28.0953C75.8035 28.0953 74.1617 30.8631 74.6474 32.4281C75.832 36.2448 79.1442 38.8586 79.1442 38.8586C79.1442 38.8586 81.0891 39.906 82.988 43.5525C84.8869 47.199 87.2844 54.4905 87.2844 54.4905C87.2844 54.4905 91.2388 61.5875 96.8465 64.637C101.751 67.304 108.354 66.4512 108.354 66.4512C108.354 66.4512 102.645 64.285 99.3011 59.7692C95.5832 54.7477 94.2316 47.3765 94.2316 47.3765C94.2316 47.3765 93.3166 39.12 89.2198 35.3991C85.0873 31.6458 77.7728 32.4281 77.7728 32.4281C77.7728 32.4281 80.6966 31.3239 82.988 31.3239C85.2794 31.3239 88.8173 30.9606 90.8163 33.3026C95.1073 38.33 95.5107 44.3624 96.8465 47.0424C99.3011 51.9669 105.71 57.8405 115.211 61.164C119.858 62.7893 132.501 63.4155 132.501 63.4155C132.501 63.4155 132.335 62.0058 131.049 61.164C126.382 58.1078 123.673 57.6147 120.597 55.6193C117.521 53.6238 115.211 50.8897 115.211 50.8897C115.211 50.8897 117.193 52.9701 119.975 54.4905C122.313 55.7685 125.187 56.0524 127.529 57.2649C129.87 58.4774 134.009 61.164 135.349 63.4155C137.435 66.9212 140.351 69.3058 140.351 69.3058C140.351 69.3058 139.449 57.9004 134.009 48.7005C127.798 38.1941 117.049 29.8932 117.049 29.8932C117.049 29.8932 127.724 37.096 131.742 41.9543C135.759 46.8126 136.932 49.4445 140.351 57.2649C142.286 61.6929 142.45 66.4512 142.45 66.4512C142.45 66.4512 143.431 71.0781 143.09 75.4476C143.019 76.3703 142.132 76.7101 141.625 76.4077C141.118 76.1053 140.351 73.8132 140.351 73.8132C140.351 73.8132 140.218 76.345 140.351 78.8663C140.444 80.6515 140.803 81.4695 140.803 81.4695C140.803 81.4695 141.566 79.4164 143.09 77.9191C143.823 77.1995 145.29 76.4077 145.29 76.4077C145.29 76.4077 147.597 70.0505 146.498 63.4155C145.34 56.4212 140.351 49.5795 140.351 49.5795C140.351 49.5795 145.29 53.1812 147.125 56.4453C149.375 60.4479 150.213 65.6028 150.213 65.6028C150.213 65.6028 150.831 57.4159 148.748 49.5795C146.537 41.2658 145.29 37.4576 141.625 33.3026C140.838 32.4112 139.285 31.0798 136.11 29.8932C129.991 27.6071 121.454 25.9696 121.454 25.9696C121.454 25.9696 127.658 25.9757 131.742 26.9555C138.009 28.4591 143.74 31.3239 143.74 31.3239C143.74 31.3239 140.422 27.162 136.11 23.9163C131.751 20.6352 126.398 18.2702 126.398 18.2702C126.398 18.2702 114.477 14.8603 102.775 15.3301C91.4569 15.7844 80.9696 19.0354 80.9696 19.0354C80.9696 19.0354 85.914 18.2702 90.8163 18.2702C93.1807 18.2702 95.503 19.0354 95.503 19.0354C95.503 19.0354 89.1001 19.1537 84.0489 21.4768C79.2504 23.6836 75.8035 28.0953 75.8035 28.0953Z" fill="#3A1F14"/>
<path id="&#232;&#183;&#175;&#229;&#190;&#132; 109" fill-rule="evenodd" clip-rule="evenodd" d="M96.8465 9.92143C96.8465 9.92143 111.781 11.0015 118.638 9.92143C122.304 9.34398 123.659 8.49951 123.659 8.49951C123.659 8.49951 122.281 12.2925 118.638 12.9492C116.591 13.3182 114.218 12.2925 109.512 12.2925C102.582 12.2925 95.3662 12.9492 95.3662 12.9492L96.8465 9.92143Z" fill="#3A1F14"/>
</g>
<path id="&#229;&#189;&#162;&#231;&#138;&#182;&#231;&#187;&#147;&#229;&#144;&#136;_6" fill-rule="evenodd" clip-rule="evenodd" d="M75.0858 30.3286L74.3586 30.1792L74.4936 30.9092L74.8107 30.8506L86.1224 47.6496L86.1232 47.6524L86.1263 47.6627L86.138 47.7015C86.1483 47.7353 86.1635 47.7848 86.1835 47.8488C86.2235 47.9767 86.2827 48.1624 86.3602 48.3956C86.515 48.8619 86.743 49.5187 87.0364 50.2836C87.6218 51.8098 88.4735 53.7821 89.5314 55.5314C90.336 56.862 91.3401 57.9478 92.1371 58.6979C92.5368 59.0741 92.8873 59.3685 93.1391 59.5697C93.265 59.6704 93.3665 59.748 93.4373 59.801C93.4728 59.8274 93.5005 59.8478 93.5199 59.8619L93.5425 59.8782L93.549 59.8827L93.5509 59.8841L93.5516 59.8846L93.5518 59.8848C93.5519 59.8848 93.552 59.8849 93.8401 59.4762L93.552 59.8849L94.8852 60.8248L94.3077 59.2992L93.5042 57.1766C93.7154 57.4326 93.9356 57.6856 94.1625 57.9285C94.9723 58.7956 95.8652 59.5067 96.5513 59.999C96.8953 60.2459 97.1898 60.4396 97.3992 60.5721C97.504 60.6384 97.5877 60.6895 97.6458 60.7243C97.6666 60.7368 97.6841 60.7472 97.6981 60.7555C97.7038 60.7588 97.7088 60.7618 97.7133 60.7644L97.7317 60.7752L97.7369 60.7782L97.7385 60.7791L97.739 60.7794L97.7392 60.7795C97.7393 60.7795 97.7393 60.7796 97.9878 60.3457L97.7393 60.7796L99.3161 61.6826L98.4233 60.1L97.3315 58.1647L98.1993 58.9505L98.945 58.2951L98.9456 58.2947L98.9455 58.2946L98.9455 58.2945L98.9447 58.2934L98.941 58.288L98.9251 58.2647C98.9108 58.2438 98.8893 58.212 98.8614 58.17C98.8054 58.086 98.7236 57.9611 98.6215 57.8002C98.4173 57.4781 98.1328 57.0121 97.8136 56.4397C97.1738 55.2924 96.4013 53.729 95.8557 52.0476C95.0245 49.486 94.4186 46.7909 94.0202 44.7314C93.8212 43.7027 93.6745 42.8351 93.5775 42.2252C93.5291 41.9202 93.4931 41.6799 93.4693 41.5161C93.4574 41.4343 93.4485 41.3716 93.4426 41.3296L93.4361 41.2823L93.4345 41.2706L93.4342 41.2678L93.4341 41.2672L93.4341 41.2671L93.4341 41.2671L93.4304 41.2396L93.4237 41.2127L92.9385 41.3334C93.4237 41.2127 93.4236 41.2125 93.4236 41.2123L93.4235 41.2118L93.4231 41.2104L93.4221 41.2064L93.4186 41.1929C93.4157 41.1817 93.4114 41.1658 93.4059 41.1455C93.3948 41.105 93.3783 41.047 93.356 40.9731C93.3114 40.8255 93.2432 40.6145 93.1476 40.3543C92.9564 39.8344 92.6543 39.1155 92.2084 38.312C91.3181 36.7077 89.8427 34.7449 87.5117 33.3672C85.851 32.3857 83.3943 31.7701 81.4033 31.3988C80.3981 31.2114 79.4936 31.0831 78.8403 31.0016C78.5134 30.9609 78.249 30.9318 78.0657 30.9128C77.974 30.9034 77.9026 30.8964 77.8538 30.8918L77.8076 30.8875L75.0858 30.3286ZM74.8107 30.8506L74.9853 30.8183L74.3586 30.1792L74.8107 30.8506ZM91.0988 53.647L92.686 57.8398L92.634 54.2653C92.7001 54.3685 92.7706 54.4771 92.8453 54.5901C93.3719 55.3873 94.0948 56.391 94.8933 57.246C95.4114 57.8007 95.971 58.2911 96.4831 58.696L94.9446 55.9689L95.7157 55.3526L96.4557 56.0226C95.9158 54.973 95.3423 53.7053 94.9045 52.3562C94.0558 49.7408 93.4409 47.0017 93.0384 44.9213C92.837 43.8799 92.6883 43.0011 92.5899 42.3821C92.5407 42.0726 92.5041 41.8278 92.4797 41.6601C92.4675 41.5762 92.4584 41.5116 92.4522 41.4677L92.4472 41.4312L92.634 54.2653C92.4679 54.0061 92.33 53.7813 92.2258 53.6076C92.1531 53.4862 92.0968 53.39 92.0591 53.3245C92.048 53.3053 92.0385 53.2887 92.0306 53.275C92.0251 53.2653 92.0204 53.257 92.0165 53.2502L92.0061 53.2317L92.0037 53.2274L92.0031 53.2265L92.0031 53.2264L92.0031 53.2263L92.0022 53.2268L91.0988 53.647Z" fill="url(#paint0_linear_0_1)"/>
<g id="&#231;&#188;&#150;&#231;&#187;&#132; 5">
<path id="&#232;&#183;&#175;&#229;&#190;&#132; 113" fill-rule="evenodd" clip-rule="evenodd" d="M107.864 32.8855C107.864 32.8855 111.298 34.6613 114.035 37.0436C116.769 39.4228 119.824 43.4529 119.824 43.4529V37.9355C119.824 37.9355 120.727 38.315 121.425 38.8166C123.151 40.0555 124.672 41.4164 124.672 41.4164C124.672 41.4164 124.152 39.6272 122.25 37.9355C120.84 36.6821 118.113 35.1857 118.113 35.1857V39.1843C118.113 39.1843 116.289 36.8776 113.536 35.1857C111.164 33.7282 107.864 32.8855 107.864 32.8855Z" fill="#A58463"/>
<path id="&#232;&#183;&#175;&#229;&#190;&#132; 114" fill-rule="evenodd" clip-rule="evenodd" d="M104.375 37.7775C104.375 37.7775 104.375 39.6067 104.695 40.6151C105.275 42.4443 106.176 43.4527 106.176 43.4527L104.375 42.2864V45.5683C104.375 45.5683 102.707 44.1444 101.781 41.9601C100.918 39.9225 100.799 37.1245 100.799 37.1245L102.634 41.3464L104.375 37.7775Z" fill="#96755C"/>
<path id="&#232;&#183;&#175;&#229;&#190;&#132; 115" fill-rule="evenodd" clip-rule="evenodd" d="M81.9098 37.1245C81.9098 37.1245 83.2525 41.3684 85.2195 44.5878C87.1562 47.7576 90.0382 49.7874 90.0382 49.7874L88.3473 44.5878L91.7465 46.6932L91.2761 44.5878H92.4568C92.4568 44.5878 91.4885 43.9467 90.8536 42.976C90.1187 41.8524 89.7173 39.4557 89.7173 39.4557C89.7173 39.4557 89.1032 40.1918 89.1032 40.9894C89.1032 42.2208 89.7173 43.5137 89.7173 43.5137C89.7173 43.5137 88.9357 43.4459 88.3473 42.976C87.355 42.1837 86.5558 40.9894 86.5558 40.9894V43.5137L85.2195 42.2097L81.9098 37.1245Z" fill="#816C57"/>
<path id="&#232;&#183;&#175;&#229;&#190;&#132; 116" fill-rule="evenodd" clip-rule="evenodd" d="M66.6207 24.341C66.6207 24.341 65.6102 25.145 64.9356 26.6365C64.4257 27.7639 64.3123 29.9318 64.3123 29.9318C64.3123 29.9318 63.5944 29.6235 63.2408 28.9146C62.7726 27.9758 62.6687 26.6365 62.6687 26.6365C62.6687 26.6365 61.9203 27.4446 61.7481 28.613C61.46 30.5689 61.7481 32.885 61.7481 32.885C61.7481 32.885 59.1086 29.5814 59.3343 26.4028C59.5689 23.0992 62.6687 19.9207 62.6687 19.9207C62.6687 19.9207 61.5588 21.31 60.9895 23.1789C60.5359 24.6679 60.5498 26.9871 60.5498 26.9871C60.5498 26.9871 61.2592 25.4101 62.1621 24.341C63.1404 23.1825 64.3123 22.5319 64.3123 22.5319C64.3123 22.5319 63.6571 23.5604 63.5553 24.6722C63.4798 25.4959 63.9577 26.4028 63.9577 26.4028C63.9577 26.4028 64.7215 25.2321 65.4447 24.6722C66.0531 24.2012 66.6207 24.341 66.6207 24.341Z" fill="#6F5C54"/>
</g>
</g>
<g id="&#231;&#188;&#150;&#231;&#187;&#132; 7">
<path id="&#232;&#183;&#175;&#229;&#190;&#132; 123" fill-rule="evenodd" clip-rule="evenodd" d="M75.8037 121.78C75.8037 121.78 78.9349 128.299 85.1995 133.734C87.5023 135.732 92.9384 136.645 92.9384 136.645C92.9384 136.645 98.013 135.463 100.577 133.352C107.042 128.03 110.996 121.78 110.996 121.78H75.8037Z" fill="#B7856D"/>
<path id="&#232;&#183;&#175;&#229;&#190;&#132; 126" fill-rule="evenodd" clip-rule="evenodd" d="M78.7409 125.419C78.7409 125.419 80.7877 130.137 82.6969 131.993C85.8518 135.06 88.8692 135.265 88.8692 135.265H93.0242L96.1034 135.879C96.1034 135.879 100.049 134.223 101.749 132.325C104.099 129.699 106.635 126.218 106.635 126.218L78.7409 125.419Z" fill="#C28F7F"/>
<path id="&#232;&#183;&#175;&#229;&#190;&#132; 117" fill-rule="evenodd" clip-rule="evenodd" d="M75.8038 120.442L93.1833 122.231L110.22 120.442L107.864 124.118L101.408 129.961L93.9406 131.993H90.058L84.7121 129.961L80.8678 127.512L79.1295 126.151L75.8038 120.442Z" fill="#450E10"/>
<path id="&#232;&#183;&#175;&#229;&#190;&#132; 118" fill-rule="evenodd" clip-rule="evenodd" d="M78.7409 121.012C78.7409 121.012 79.6707 123.307 82.0736 124.119C85.1174 125.147 92.9777 125.416 92.9777 125.416C92.9777 125.416 99.0625 125.41 101.407 124.864C105.902 123.817 106.635 121.784 106.635 121.784C106.635 121.784 99.3227 122.844 92.9777 122.668C85.3758 122.458 78.7409 121.012 78.7409 121.012Z" fill="white"/>
<path id="&#232;&#183;&#175;&#229;&#190;&#132; 119" fill-rule="evenodd" clip-rule="evenodd" d="M83.8103 128.841C83.8103 128.841 88.6564 129.283 93.1833 129.283C97.6257 129.283 101.749 128.841 101.749 128.841C101.749 128.841 100.185 130.631 98.9901 131.07C97.3178 131.685 94.8349 131.552 93.1039 131.552C91.31 131.552 88.9623 131.711 87.1071 131.07C85.8479 130.635 83.8103 128.841 83.8103 128.841Z" fill="white"/>
</g>
<g id="&#231;&#188;&#150;&#231;&#187;&#132; 6">
<path id="&#232;&#183;&#175;&#229;&#190;&#132; 120" d="M72.7196 118.049C72.7196 118.049 80.4708 122.596 93.4279 122.596C107.378 122.596 113.206 118.373 113.206 118.373" stroke="#9E7260" stroke-width="3"/>
<path id="&#232;&#183;&#175;&#229;&#190;&#132; 121" d="M73.1729 118.513C73.1729 118.513 82.8714 132.325 92.9631 132.325C103.092 132.325 112.446 119.34 112.446 119.34" stroke="#9E7260" stroke-width="3"/>
</g>
<path id="&#232;&#183;&#175;&#229;&#190;&#132; 122" fill-rule="evenodd" clip-rule="evenodd" d="M83.8103 133.352C83.8103 133.352 88.4545 135.29 92.688 135.439C95.9308 135.552 100.577 133.986 100.577 133.986C100.577 133.986 95.6646 137.294 92.2453 137.174C88.1883 137.031 83.8103 133.352 83.8103 133.352Z" fill="#A47565"/>
<path id="&#232;&#183;&#175;&#229;&#190;&#132; 124" d="M71.8281 117.263C71.8281 117.263 78.4898 121.684 92.9319 121.684C107.372 121.684 114.123 117.702 114.123 117.702" stroke="#C28F7F" stroke-width="2"/>
<path id="&#232;&#183;&#175;&#229;&#190;&#132; 125" fill-rule="evenodd" clip-rule="evenodd" d="M73.7369 117.718C73.7369 117.718 72.1291 116.74 71.6423 116.797C71.1556 116.855 71.0019 117.461 71.1289 118.017C71.3396 118.94 71.7053 119.224 72.3176 119.755C72.93 120.286 74.3088 120.776 74.3088 120.776C74.3088 120.776 72.8771 119.324 72.6976 118.364C72.5911 117.794 73.7369 117.718 73.7369 117.718Z" fill="#C28F7F"/>
<path id="&#232;&#183;&#175;&#229;&#190;&#132; 125&#229;&#164;&#135;&#228;&#187;&#189;" fill-rule="evenodd" clip-rule="evenodd" d="M111.803 118.626C111.803 118.626 113.41 117.648 113.897 117.705C114.384 117.763 114.538 118.369 114.411 118.925C114.2 119.848 113.834 120.132 113.222 120.663C112.61 121.194 111.231 121.684 111.231 121.684C111.231 121.684 112.662 120.232 112.842 119.272C112.948 118.702 111.803 118.626 111.803 118.626Z" fill="#C28F7F"/>
<g id="&#231;&#188;&#150;&#231;&#187;&#132; 2">
<path id="&#232;&#183;&#175;&#229;&#190;&#132; 143" fill-rule="evenodd" clip-rule="evenodd" d="M84.6571 217.907H30.53L35.9789 197.709L36.8388 177.396L39.6414 168.671L44.1005 162.325C44.1005 162.325 48.491 159.893 53.4555 157.959C58.4199 156.026 69.0708 152.6 69.0708 152.6L74.2746 146.981H81.5949C81.5949 146.981 81.9808 148.345 81.5949 149.885C81.4491 150.467 80.3452 151.224 80.3452 151.224C80.3452 151.224 79.5691 151.758 78.7411 151.922C77.8113 152.107 76.8296 151.922 76.8296 151.922L77.5055 155.19L87.0662 162.17L88.487 165.03L84.6571 170.943L85.406 209.145L84.6571 217.907Z" fill="#A2A185"/>
<path id="&#232;&#183;&#175;&#229;&#190;&#132; 137" fill-rule="evenodd" clip-rule="evenodd" d="M71.8281 164.181C71.8281 164.181 72.5824 171.878 73.8359 172.367C75.7855 173.129 81.2084 169.37 83.8101 166.717C84.6919 165.818 83.8101 163.751 83.8101 163.751L75.7855 168.301L71.8281 164.181Z" fill="#898971"/>
<path id="&#232;&#183;&#175;&#229;&#190;&#132; 129" d="M75.8037 150.455C75.8037 150.455 75.6645 152.447 76.5939 153.196C81.8924 157.463 85.9477 159.612 87.9981 163.727C88.6294 164.993 84.4525 169.125 84.4525 169.125C84.4525 169.125 85.5322 181.602 85.5322 193.974C85.5322 204.648 84.4525 215.217 84.4525 215.217" stroke="#5F5E4C" stroke-width="4" stroke-linecap="round"/>
<path id="&#232;&#183;&#175;&#229;&#190;&#132; 131" d="M77.0995 168.301L74.981 215.217" stroke="#605F4B" stroke-width="2" stroke-linecap="round" stroke-linejoin="round"/>
<path id="&#232;&#183;&#175;&#229;&#190;&#132; 132" d="M75.7856 169.408L68.3134 176.067L57.5137 176.694L55.5414 175.462L53.4962 176.694L51.2358 176.067L49.6812 176.694H44.2739C44.2739 176.694 43.7188 171.825 44.9412 167.246C45.8605 163.802 48.5573 160.649 48.5573 160.649" stroke="#605F4B" stroke-width="2" stroke-linecap="round" stroke-linejoin="round"/>
<path id="&#232;&#183;&#175;&#229;&#190;&#132; 133" d="M74.9809 171.186L74.3088 188.107L72.6908 215.217" stroke="#605E4E" stroke-dasharray="4 2"/>
<path id="&#232;&#183;&#175;&#229;&#190;&#132; 134" d="M73.1729 168.671L67.524 174.064H56.9318L54.7587 173.129L53.6062 174.655C53.6062 174.655 52.5392 174.064 51.3969 174.064C50.1819 174.064 48.8916 174.655 48.8916 174.655H45.2941C45.2941 174.655 45.0305 170.566 46.3381 166.621C47.3516 163.563 49.9362 160.649 49.9362 160.649" stroke="#605E4E" stroke-dasharray="4 2"/>
<path id="&#232;&#183;&#175;&#229;&#190;&#132; 135" opacity="0.582736" fill-rule="evenodd" clip-rule="evenodd" d="M54.5647 164.181C54.5647 164.181 55.6022 173.179 56.3798 177.43C57.1574 181.68 58.4477 184.261 58.4477 184.261C58.4477 184.261 54.5418 180.755 53.2939 174.323C52.6458 170.983 54.5647 164.181 54.5647 164.181Z" fill="#5F5B48"/>
<path id="&#232;&#183;&#175;&#229;&#190;&#132; 136" opacity="0.582736" fill-rule="evenodd" clip-rule="evenodd" d="M50.4369 168.301C50.4369 168.301 49.7363 171.705 49.417 175.967C49.2263 178.513 49.417 181.918 49.417 181.918C49.417 181.918 48.0681 176.695 48.2845 173.806C48.5781 169.886 50.4369 168.301 50.4369 168.301Z" fill="#5F5B48"/>
<path id="&#232;&#183;&#175;&#229;&#190;&#132; 138" fill-rule="evenodd" clip-rule="evenodd" d="M46.2086 186.969C46.2086 186.969 48.0935 189.178 49.3458 194.289C50.3634 198.442 50.6459 203.597 51.462 208.673C51.8268 210.942 53.1302 215.93 53.1302 215.93L48.2546 217.058L47.3059 211.003L46.2086 186.969Z" fill="#898971"/>
<path id="&#232;&#183;&#175;&#229;&#190;&#132; 130" d="M69.0707 154.341C69.0707 154.341 70.7313 162.942 74.4404 168.016C75.0526 168.853 77.2522 167.649 78.1791 166.945C80.4579 165.214 80.258 165.253 82.697 163.751C83.1499 163.472 83.8101 163.751 83.8101 163.751" stroke="#5F5E4C" stroke-width="3" stroke-linecap="round"/>
<path id="&#232;&#183;&#175;&#229;&#190;&#132; 144" d="M31.1663 215.93C31.1663 215.93 33.9556 207.038 35.6239 196.358C37.0983 186.919 35.896 182.221 37.4517 175.691C39.6546 166.446 42.6746 162.998 45.2498 161.321C51.3016 157.381 67.524 153.322 67.524 153.322C67.524 153.322 70.0662 149.59 73.1728 147.83C76.4768 145.959 80.3451 146.061 80.3451 146.061" stroke="#5F5E4C" stroke-width="4" stroke-linecap="round"/>
</g>
<g id="&#231;&#188;&#150;&#231;&#187;&#132; 2&#229;&#164;&#135;&#228;&#187;&#189;">
<path id="&#232;&#183;&#175;&#229;&#190;&#132; 143_2" fill-rule="evenodd" clip-rule="evenodd" d="M99.9613 217.907H154.088L148.639 197.709L147.78 177.396L144.977 168.671L140.518 162.325C140.518 162.325 136.127 159.893 131.163 157.959C126.198 156.026 115.548 152.6 115.548 152.6L110.344 146.981H103.023C103.023 146.981 102.638 148.345 103.023 149.885C103.169 150.467 104.273 151.224 104.273 151.224C104.273 151.224 105.049 151.758 105.877 151.922C106.807 152.107 107.789 151.922 107.789 151.922L107.113 155.19L97.5522 162.17L96.1314 165.03L99.9613 170.943L99.2124 209.145L99.9613 217.907Z" fill="#A2A185"/>
<path id="&#232;&#183;&#175;&#229;&#190;&#132; 137_2" fill-rule="evenodd" clip-rule="evenodd" d="M112.79 164.181C112.79 164.181 112.036 171.878 110.782 172.367C108.833 173.129 103.41 169.37 100.808 166.717C99.9265 165.818 100.808 163.751 100.808 163.751L108.833 168.301L112.79 164.181Z" fill="#898971"/>
<path id="&#232;&#183;&#175;&#229;&#190;&#132; 129_2" d="M108.815 150.455C108.815 150.455 108.954 152.447 108.025 153.196C102.726 157.463 98.6708 159.612 96.6204 163.727C95.9892 164.993 100.166 169.125 100.166 169.125C100.166 169.125 99.0864 181.602 99.0864 193.974C99.0864 204.648 100.166 215.217 100.166 215.217" stroke="#5F5E4C" stroke-width="4" stroke-linecap="round"/>
<path id="&#232;&#183;&#175;&#229;&#190;&#132; 131_2" d="M107.519 168.301L109.637 215.217" stroke="#605F4B" stroke-width="2" stroke-linecap="round" stroke-linejoin="round"/>
<path id="&#232;&#183;&#175;&#229;&#190;&#132; 132_2" d="M108.833 169.408L116.305 176.067L127.105 176.694L129.077 175.462L131.122 176.694L133.383 176.067L134.937 176.694H140.345C140.345 176.694 140.9 171.825 139.677 167.246C138.758 163.802 136.061 160.649 136.061 160.649" stroke="#605F4B" stroke-width="2" stroke-linecap="round" stroke-linejoin="round"/>
<path id="&#232;&#183;&#175;&#229;&#190;&#132; 133_2" d="M109.637 171.186L110.31 188.107L111.928 215.217" stroke="#605E4E" stroke-dasharray="4 2"/>
<path id="&#232;&#183;&#175;&#229;&#190;&#132; 134_2" d="M111.445 168.671L117.094 174.064H127.687L129.86 173.129L131.012 174.655C131.012 174.655 132.079 174.064 133.221 174.064C134.436 174.064 135.727 174.655 135.727 174.655H139.324C139.324 174.655 139.588 170.566 138.28 166.621C137.267 163.563 134.682 160.649 134.682 160.649" stroke="#605E4E" stroke-dasharray="4 2"/>
<path id="&#232;&#183;&#175;&#229;&#190;&#132; 135_2" opacity="0.582736" fill-rule="evenodd" clip-rule="evenodd" d="M130.054 164.181C130.054 164.181 129.016 173.179 128.239 177.43C127.461 181.68 126.171 184.261 126.171 184.261C126.171 184.261 130.077 180.755 131.325 174.323C131.973 170.983 130.054 164.181 130.054 164.181Z" fill="#5F5B48"/>
<path id="&#232;&#183;&#175;&#229;&#190;&#132; 136_2" opacity="0.582736" fill-rule="evenodd" clip-rule="evenodd" d="M134.182 168.301C134.182 168.301 134.882 171.705 135.201 175.967C135.392 178.513 135.201 181.918 135.201 181.918C135.201 181.918 136.55 176.695 136.334 173.806C136.04 169.886 134.182 168.301 134.182 168.301Z" fill="#5F5B48"/>
<path id="&#232;&#183;&#175;&#229;&#190;&#132; 138_2" fill-rule="evenodd" clip-rule="evenodd" d="M138.41 186.969C138.41 186.969 136.525 189.178 135.273 194.289C134.255 198.442 133.973 203.597 133.157 208.673C132.792 210.942 131.488 215.93 131.488 215.93L136.364 217.058L137.313 211.003L138.41 186.969Z" fill="#898971"/>
<path id="&#232;&#183;&#175;&#229;&#190;&#132; 130_2" d="M115.548 154.341C115.548 154.341 113.887 162.942 110.178 168.016C109.566 168.853 107.366 167.649 106.439 166.945C104.161 165.214 104.36 165.252 101.922 163.751C101.469 163.472 100.808 163.751 100.808 163.751" stroke="#5F5E4C" stroke-width="3" stroke-linecap="round"/>
<path id="&#232;&#183;&#175;&#229;&#190;&#132; 144_2" d="M153.452 215.93C153.452 215.93 150.663 207.038 148.995 196.358C147.52 186.919 148.722 182.221 147.167 175.691C144.964 166.446 141.944 162.998 139.369 161.321C133.317 157.381 117.094 153.322 117.094 153.322C117.094 153.322 114.552 149.59 111.446 147.83C108.142 145.959 104.273 146.061 104.273 146.061" stroke="#5F5E4C" stroke-width="4" stroke-linecap="round"/>
</g>
</g>
</g>
</g>
</g>
</g>
</g>
</g>
</g>
</g>
<defs>
<linearGradient id="paint0_linear_0_1" x1="68.5708" y1="45.003" x2="87.2899" y2="64.2836" gradientUnits="userSpaceOnUse">
<stop stop-color="#402516"/>
<stop offset="1" stop-color="#7E4123"/>
</linearGradient>
<clipPath id="clip0_0_1">
<rect width="1440" height="1100" fill="white" transform="translate(-822 -726)"/>
</clipPath>
<clipPath id="clip1_0_1">
<rect x="-7" y="-75" width="400" height="338" rx="16" fill="white"/>
</clipPath>
</defs>
</svg>
